<svg width="25" height="21" viewBox="0 0 25 21" fill="none" xmlns="http://www.w3.org/2000/svg">
<path d="M15.3688 19.5887L23.5824 11.4379C24.3348 10.6868 24.3348 9.46755 23.5824 8.71893L15.3688 0.563311C14.6101 -0.187831 13.3821 -0.184062 12.6234 0.563311C11.8723 1.31571 11.8723 2.5299 12.6234 3.2823L17.4285 8.04973L2.01437 8.04973C0.900866 8.04973 -1.90735e-05 8.94936 -1.90735e-05 10.0629C-1.90735e-05 11.1751 0.900866 12.076 2.01437 12.076L17.4575 12.076L12.6234 16.8685C11.8723 17.6197 11.8723 18.8351 12.6234 19.5863C13.3809 20.3387 14.6089 20.3399 15.3688 19.5888V19.5887Z" fill="white"/>
</svg>
