<svg width="24" height="24" viewBox="0 0 24 24" fill="none" xmlns="http://www.w3.org/2000/svg">
<path fill-rule="evenodd" clip-rule="evenodd" d="M23.3304 23.3294C24.2232 22.4366 24.2232 20.9901 23.3304 20.0973L18.6139 15.3807C18.279 15.0459 18.192 14.4365 18.4174 14.0213C18.4174 14.0213 18.4018 14.0839 18.567 13.72C19.1206 12.499 19.4286 11.1419 19.4286 9.71332C19.4286 4.34726 15.0804 -0.000976562 9.7143 -0.000976562C4.34823 -0.000976562 0 4.34726 0 9.71332C0 15.0794 4.34823 19.4276 9.7143 19.4276C11.1384 19.4276 12.4911 19.1218 13.7098 18.5705C14.0781 18.4053 14.0201 18.4187 14.0201 18.4187C14.442 18.1932 15.0469 18.2781 15.3817 18.6129L20.0982 23.3294C20.991 24.2223 22.4375 24.2222 23.3304 23.3294ZM15.1429 9.71337C15.1429 12.7111 12.7121 15.142 9.71434 15.142C6.71656 15.142 4.28576 12.7111 4.28576 9.71337C4.28576 6.7156 6.71656 4.28479 9.71434 4.28479C12.7121 4.28479 15.1429 6.7156 15.1429 9.71337Z" fill="white"/>
</svg>
