<svg width="40" height="25" viewBox="0 0 40 25" fill="none" xmlns="http://www.w3.org/2000/svg">
<path d="M26.3578 4.75375C26.4459 4.67396 26.534 4.59584 26.6205 4.51771C26.795 4.36312 26.9646 4.20521 27.1308 4.04894C27.292 3.88272 27.4832 3.77301 27.6511 3.63172C27.824 3.49708 27.9902 3.35745 28.1597 3.23278C28.5105 3.00838 28.8362 2.7607 29.167 2.57121C29.4978 2.3867 29.8053 2.18391 30.1112 2.04593C30.2625 1.96781 30.4071 1.89301 30.545 1.82153C30.688 1.75837 30.8243 1.69687 30.9539 1.64035C31.4742 1.39933 31.9048 1.25305 32.2006 1.14499C32.4982 1.04858 32.6577 0.998712 32.6577 0.998712L32.6727 0.993726C32.7259 0.977103 32.7708 0.933883 32.7891 0.877368C32.819 0.78262 32.7658 0.681224 32.6727 0.651305C32.6727 0.651305 32.4932 0.59479 32.1641 0.534947C31.9995 0.508351 31.7917 0.468458 31.5507 0.453496C31.308 0.433549 31.0254 0.403628 30.7112 0.413602C30.5533 0.415265 30.3855 0.41194 30.2109 0.421914C30.0364 0.436874 29.8535 0.453496 29.664 0.471782C29.2784 0.498378 28.8744 0.586476 28.434 0.676237C28.2096 0.712806 27.9918 0.78262 27.7641 0.852433C27.5347 0.92391 27.2987 0.997046 27.0576 1.07185C26.5955 1.26633 26.0902 1.45915 25.5982 1.72176C25.3555 1.85806 25.1062 1.99935 24.8552 2.15061C24.7288 2.22541 24.6025 2.30188 24.4745 2.37834C24.3548 2.46644 24.2335 2.55454 24.1121 2.64263C23.8711 2.82714 23.6251 3.01331 23.3741 3.2028C23.1148 3.38565 22.9087 3.62335 22.671 3.8411C22.4399 4.06717 22.2056 4.29489 21.9696 4.52595C21.7584 4.77695 21.5473 5.03293 21.3396 5.29723C21.1351 5.56319 20.9124 5.82583 20.7229 6.10838C20.5417 6.39594 20.3705 6.69348 20.1926 6.99102C20.0247 7.2952 19.8369 7.58608 19.6873 7.90855C19.541 8.23767 19.4047 8.57344 19.2668 8.91089C19.1288 9.24666 18.9908 9.58574 18.8628 9.92651C18.7747 10.2423 18.685 10.5615 18.5952 10.8806C18.5054 11.1998 18.4157 11.5206 18.3259 11.8414L18.1747 12.37L18.0566 12.8071C18.0151 12.9534 17.9818 13.1014 17.9353 13.246L17.7774 13.6698L17.6195 14.097C17.5646 14.2383 17.4948 14.3713 17.4333 14.5109C16.928 15.613 16.2598 16.6402 15.4586 17.5478C14.6557 18.4537 13.7432 19.2566 12.7658 19.9281C11.79 20.6047 10.7578 21.1482 9.74382 21.6053C8.72654 22.0591 7.72254 22.4115 6.77671 22.6875C4.88344 23.2443 3.2345 23.5003 2.08097 23.6499C0.922372 23.7945 0.257478 23.8045 0.257478 23.8045C0.172704 23.8061 0.0995674 23.8693 0.0879292 23.9557C0.0762938 24.0505 0.142784 24.1386 0.239193 24.1502H0.242517C0.242517 24.1502 0.92239 24.2367 2.11252 24.2616C2.70758 24.2749 3.43235 24.2682 4.26511 24.2167C5.09622 24.1652 6.03707 24.0821 7.05601 23.9109C9.08724 23.5684 11.4777 22.9484 13.8313 21.6685C15.0049 21.0319 16.1684 20.2323 17.2057 19.235C18.2462 18.246 19.1688 17.0758 19.9001 15.7908C19.9916 15.6296 20.0913 15.4733 20.1761 15.3088L20.4204 14.8134C20.585 14.4826 20.7446 14.1485 20.8775 13.8078L21.087 13.2975L21.1385 13.1695L21.1651 13.1063L21.1717 13.0897C21.1933 13.0249 21.1485 13.1595 21.1551 13.1412L21.1667 13.1129L21.2648 12.8819C21.3978 12.576 21.5291 12.2702 21.6604 11.966C21.7918 11.6619 21.9231 11.3593 22.0544 11.0568C22.2023 10.8041 22.3386 10.5515 22.4733 10.3005C22.6079 10.0495 22.7442 9.80181 22.8656 9.54917C23.0035 9.3015 23.1681 9.06215 23.3127 8.81947C23.4573 8.57512 23.6019 8.33411 23.7366 8.08977C23.8862 7.85705 24.0507 7.64096 24.2003 7.41658C24.3566 7.1955 24.4962 6.96611 24.6475 6.74836C24.812 6.54391 24.9733 6.34112 25.1328 6.14164C25.2126 6.04024 25.2907 5.94051 25.3705 5.84078C25.447 5.73772 25.5251 5.63798 25.6132 5.55321C25.7844 5.37203 25.9523 5.19417 26.1185 5.01797C26.1967 4.93154 26.2781 4.84178 26.3579 4.75368L26.3578 4.75375Z" fill="#4AF6CD"/>
<path fill-rule="evenodd" clip-rule="evenodd" d="M38.8297 23.4507C39.4663 23.735 39.837 23.8729 39.837 23.8729L39.8371 23.8729C39.9003 23.8962 39.9335 23.966 39.9086 24.0259C39.887 24.0807 39.8288 24.1123 39.7706 24.1023C39.7706 24.1023 39.3733 24.0259 38.6901 23.8513C38.0053 23.6801 37.0395 23.3859 35.8992 22.9587C35.809 22.9231 35.7172 22.8875 35.6241 22.8515C35.4259 22.7746 35.222 22.6956 35.0149 22.6096C34.8727 22.5471 34.7283 22.4842 34.5819 22.4205C34.4168 22.3486 34.2491 22.2756 34.0791 22.2007C33.9574 22.1405 33.8341 22.0797 33.7097 22.0184C33.5113 21.9207 33.3099 21.8214 33.1067 21.7203C32.8637 21.5845 32.617 21.4459 32.3665 21.3051C32.2829 21.2581 32.1988 21.2109 32.1143 21.1635C32.0087 21.0962 31.9026 21.0286 31.7962 20.9608C31.571 20.8172 31.3439 20.6724 31.1137 20.5268C30.8778 20.3601 30.6454 20.1839 30.4103 20.0057C30.3173 19.9352 30.2239 19.8644 30.1296 19.7938C29.9626 19.6479 29.7951 19.5007 29.6271 19.3531C29.4791 19.223 29.3308 19.0927 29.1821 18.9627C29.0935 18.869 29.0041 18.7755 28.9145 18.6817C28.7082 18.466 28.5006 18.2488 28.2978 18.0252L27.8939 17.5082L27.6928 17.2489L27.5897 17.1193L27.5648 17.0877L27.5515 17.0711C27.5492 17.067 27.5484 17.0657 27.5485 17.0657C27.5486 17.066 27.5663 17.0972 27.5182 17.0162L27.5133 17.0079L27.4717 16.9447L27.1459 16.4444C27.1126 16.3906 27.0789 16.3408 27.0453 16.2911C26.9698 16.1795 26.8942 16.0678 26.8218 15.9092C26.7727 15.8073 26.7208 15.7052 26.6687 15.6028C26.5076 15.2859 26.345 14.9659 26.2583 14.6392C26.244 14.5954 26.2296 14.5517 26.2151 14.508C26.1588 14.3377 26.1025 14.1676 26.0588 13.9943C26.0434 13.899 26.0283 13.8041 26.0132 13.7095C25.9925 13.5795 25.9719 13.45 25.9508 13.3211C25.9462 13.2771 25.9405 13.2336 25.9347 13.1902C25.9256 13.1222 25.9166 13.0543 25.9125 12.9853L25.9159 12.6429C25.9187 12.5781 25.9202 12.5135 25.9217 12.4492C25.9254 12.2876 25.9291 12.1274 25.9541 11.968C25.9823 11.7952 26.0183 11.6253 26.0539 11.4576C26.0645 11.4076 26.0751 11.3578 26.0854 11.3081C26.1109 11.164 26.1675 11.0243 26.223 10.8871C26.2508 10.8186 26.2782 10.7506 26.3015 10.6831L26.4212 10.3839C26.4499 10.3199 26.4873 10.2581 26.5244 10.197C26.5431 10.1661 26.5618 10.1354 26.5791 10.1046C26.6132 10.0499 26.646 9.99501 26.6785 9.94056C26.7537 9.81479 26.8274 9.69139 26.9132 9.5777C26.924 9.56508 26.9347 9.55248 26.9454 9.53991C27.2011 9.23953 27.4443 8.95381 27.7426 8.74162C27.9589 8.54603 28.2106 8.41302 28.448 8.28754C28.5153 8.25199 28.5814 8.21704 28.6452 8.18145C28.7579 8.13123 28.8733 8.09274 28.9854 8.05535C29.0255 8.042 29.0651 8.02878 29.104 8.01523C29.1189 8.0102 29.1338 8.00515 29.1485 8.00013C29.2802 7.95534 29.4066 7.91232 29.5412 7.89887C30.1129 7.78418 30.6183 7.81576 31.0056 7.89388C31.2017 7.93544 31.3696 7.98198 31.5126 8.02354C31.6539 8.08504 31.7702 8.13823 31.8616 8.18478C32.0445 8.2762 32.1359 8.32773 32.1359 8.32773C32.1957 8.36264 32.2157 8.4391 32.1808 8.49894C32.1608 8.53384 32.1276 8.55545 32.091 8.56044L32.0744 8.56376C32.0744 8.56376 31.973 8.57872 31.7835 8.60698C31.7084 8.62064 31.6198 8.63093 31.5205 8.64246C31.499 8.64497 31.4769 8.64753 31.4544 8.6502C31.4119 8.66193 31.3674 8.67496 31.3213 8.6885C31.23 8.71525 31.1321 8.74393 31.0305 8.76822C30.9245 8.78531 30.8154 8.83601 30.7031 8.88817C30.6517 8.91208 30.5996 8.93629 30.5468 8.95771C30.4313 8.99324 30.321 9.0629 30.2085 9.13397C30.1526 9.16929 30.0961 9.20496 30.0382 9.23696C29.9216 9.30643 29.8127 9.39932 29.7031 9.4927C29.6501 9.53786 29.597 9.58313 29.5428 9.62593C29.4938 9.6846 29.4415 9.73936 29.3892 9.79417C29.2888 9.8993 29.1882 10.0046 29.1106 10.1379C28.8347 10.4986 28.6452 10.9507 28.5388 11.4411C28.5315 11.4875 28.5201 11.5323 28.5087 11.5772C28.4892 11.6544 28.4696 11.7316 28.4707 11.8167C28.4684 11.8465 28.4663 11.8763 28.4642 11.9062C28.4571 12.0082 28.4499 12.1108 28.4358 12.2124C28.4293 12.2857 28.4335 12.3625 28.4378 12.4398C28.4412 12.5028 28.4446 12.566 28.4424 12.6279C28.4424 12.6453 28.4425 12.6628 28.4426 12.6802C28.4429 12.7327 28.4432 12.7854 28.4407 12.839C28.443 12.8887 28.451 12.9392 28.459 12.9899C28.4625 13.0122 28.466 13.0345 28.469 13.0568C28.4768 13.134 28.4842 13.2118 28.4916 13.2897C28.4983 13.361 28.5051 13.4325 28.5122 13.5039C28.5488 13.6552 28.582 13.8097 28.6119 13.966C28.6419 14.1754 28.6999 14.3648 28.7588 14.5568C28.7915 14.6637 28.8245 14.7713 28.853 14.8835C28.8696 14.9856 28.9303 15.1165 28.9909 15.2472C29.0151 15.2995 29.0394 15.3518 29.0608 15.4022L29.3068 15.9457L29.3367 16.0139L29.34 16.0188L29.3433 16.0255L29.4115 16.1418L29.5511 16.3712L29.832 16.8367C29.9586 17.0017 30.0846 17.1667 30.2104 17.3314C30.3077 17.4587 30.4048 17.5859 30.5019 17.7127L31.2599 18.5305C31.5325 18.7848 31.8034 19.0375 32.0727 19.2868C32.1668 19.3649 32.2604 19.4428 32.3537 19.5204C32.5425 19.6774 32.7297 19.8331 32.9155 19.9866C33.2064 20.2027 33.4939 20.4155 33.7748 20.6232C34.0657 20.8211 34.3516 21.0139 34.6292 21.2C34.9151 21.3779 35.1927 21.5508 35.462 21.7187C35.6348 21.8219 35.8063 21.9192 35.9739 22.0142C36.0707 22.0691 36.1662 22.1233 36.2599 22.1774C36.7768 22.4634 37.2605 22.7127 37.6944 22.9221C38.1299 23.1332 38.5122 23.3094 38.8297 23.4507ZM29.32 15.9842C29.3196 15.9838 29.3191 15.9831 29.3183 15.9823L29.3266 15.9973L29.3299 16.0006C29.3266 15.9956 29.3216 15.9873 29.3199 15.984C29.3199 15.984 29.32 15.9841 29.32 15.9842Z" fill="#4AF6CD"/>
<path d="M31.4876 2.85212C30.7064 3.01336 30.2127 3.21781 30.2127 3.21781C30.1811 3.23111 30.1562 3.2627 30.1562 3.29927C30.1545 3.34747 30.1944 3.38736 30.2426 3.38736C30.2443 3.38736 30.7595 3.39069 31.5192 3.47878C31.8982 3.51535 32.3337 3.59181 32.7925 3.6716C33.2496 3.77466 33.7333 3.86775 34.1971 4.01402C34.3134 4.05392 34.4298 4.0855 34.5428 4.12872C34.6542 4.17859 34.7639 4.22679 34.8736 4.27499C35.093 4.36974 35.2991 4.47446 35.5069 4.54594C35.718 4.6091 35.9225 4.66396 36.1236 4.70053C36.3297 4.73377 36.5259 4.76535 36.7071 4.79361C36.8916 4.82187 37.0711 4.83184 37.234 4.84016C37.3919 4.85678 37.5382 4.86675 37.6628 4.86675C37.9138 4.87174 38.0801 4.85345 38.0801 4.85345L38.0867 4.85179C38.095 4.85013 38.1017 4.84847 38.11 4.8468C38.1665 4.82686 38.1948 4.76369 38.1748 4.70718C38.1748 4.70718 38.12 4.55591 37.9853 4.33317C37.9188 4.21848 37.8291 4.09049 37.7177 3.94754C37.6047 3.80957 37.4634 3.67327 37.3021 3.53198C37.2223 3.45884 37.1343 3.38903 37.0428 3.31921C36.9464 3.25937 36.85 3.19122 36.7436 3.13304C36.5375 3.00505 36.3065 2.89036 36.0538 2.8222C35.8028 2.74574 35.5335 2.70585 35.2576 2.69421C34.9833 2.66928 34.7074 2.65764 34.4331 2.64434C34.1605 2.61941 33.8879 2.62274 33.622 2.61775C33.356 2.6111 33.0934 2.6377 32.8424 2.65099C32.5897 2.68091 32.3504 2.69421 32.1226 2.73577C31.8966 2.774 31.6838 2.81057 31.4877 2.85213L31.4876 2.85212Z" fill="#4AF6CD"/>
<path d="M37.1093 9.00227C37.2756 9.07707 37.4052 9.16018 37.5349 9.22002C37.7726 9.353 37.9388 9.43279 37.9388 9.43279L37.9488 9.43777C37.9621 9.44442 37.977 9.44775 37.9937 9.44775C38.0468 9.44608 38.0901 9.4012 38.0901 9.34635C38.0901 9.34635 38.0884 9.30147 38.0867 9.21836C38.0817 9.13525 38.0768 9.01058 38.0435 8.85932C38.0069 8.71138 37.9621 8.52355 37.8706 8.33072C37.7892 8.12793 37.6662 7.92015 37.5133 7.7057C37.4351 7.60098 37.347 7.4946 37.2556 7.38822C37.1575 7.29014 37.0595 7.18044 36.9481 7.08403C36.7287 6.88622 36.476 6.70338 36.1951 6.55875C35.9142 6.4158 35.605 6.31108 35.2909 6.23296C34.9767 6.14818 34.6592 6.08169 34.3467 6.00856C33.7217 5.86394 33.0967 5.76255 32.5099 5.716C31.9248 5.66115 31.3779 5.65118 30.9109 5.65616C29.9784 5.6678 29.365 5.76088 29.365 5.76088C29.3284 5.76587 29.2985 5.79413 29.2902 5.8307C29.2819 5.8789 29.3118 5.92544 29.36 5.93376C29.36 5.93376 29.9601 6.04845 30.8361 6.2795C31.2732 6.39253 31.7769 6.54047 32.3055 6.71499C32.5698 6.79976 32.8374 6.90282 33.11 6.99923C33.3793 7.09897 33.6502 7.20867 33.9129 7.32669C34.1755 7.44637 34.4298 7.58267 34.6642 7.73227C34.9019 7.88022 35.1229 8.03147 35.3457 8.15448C35.5685 8.27583 35.7829 8.38221 35.9973 8.4753C36.2084 8.57337 36.4079 8.66645 36.5924 8.75289C36.7818 8.84265 36.9564 8.92742 37.1093 9.00222L37.1093 9.00227Z" fill="#4AF6CD"/>
<path d="M36.1817 11.0887C36.1185 10.9573 36.0287 10.8343 35.929 10.703C35.8309 10.57 35.7046 10.4637 35.565 10.3623C35.4254 10.2625 35.2558 10.2027 35.0879 10.1379C34.9184 10.0814 34.7472 10.0265 34.5826 9.965C34.2501 9.85363 33.9194 9.74724 33.6019 9.69073C33.2877 9.62091 32.9885 9.58933 32.7358 9.56274C32.2305 9.51121 31.8881 9.53282 31.8881 9.53282C31.8631 9.53448 31.8399 9.54944 31.8266 9.57437C31.81 9.61094 31.8249 9.65416 31.8615 9.67078C31.8615 9.67078 32.1624 9.81207 32.5946 10.0381C32.809 10.1562 33.0533 10.2974 33.3093 10.452C33.434 10.5318 33.5636 10.6133 33.6933 10.6947C33.8246 10.7745 33.9493 10.8676 34.0756 10.954C34.197 11.0471 34.3133 11.1485 34.4197 11.2532C34.5194 11.3646 34.6275 11.461 34.7305 11.5441C34.8319 11.6272 34.9549 11.6821 35.0646 11.7386C35.1727 11.7968 35.2907 11.8383 35.3987 11.8816C35.5018 11.9264 35.6082 11.963 35.7112 11.9929C35.8143 12.0228 35.8958 12.0577 35.9772 12.0794C36.1368 12.1276 36.2531 12.1475 36.2531 12.1475L36.2581 12.1492C36.3097 12.1591 36.3595 12.1242 36.3695 12.0727C36.3695 12.0727 36.3894 11.963 36.3778 11.7818C36.3712 11.6921 36.3612 11.5774 36.3279 11.4627C36.293 11.348 36.2465 11.2216 36.1817 11.0887H36.1817Z" fill="#4AF6CD"/>
</svg>
