<svg width="25" height="52" viewBox="0 0 25 52" fill="none" xmlns="http://www.w3.org/2000/svg">
<g filter="url(#filter0_d_0_2964)">
<path fill-rule="evenodd" clip-rule="evenodd" d="M5 20.583C5 7.50218 10.4217 0.444892 12.6388 0.444336C14.8563 0.444892 20.2777 7.50174 20.2777 20.583C20.2777 33.7999 15.5346 42.76 15.3333 43.135L15.1371 43.4996H10.1406L9.94444 43.135C9.74311 42.7599 5 33.7999 5 20.583ZM11.9447 2.28815V2.28808L11.9448 2.28803L11.9447 2.28815ZM11.9447 2.28815V24.0556H13.3336V2.28808C15.1113 3.87488 18.8891 9.64763 18.8891 20.5832C18.8891 24.2325 18.5054 27.5623 17.9585 30.4703C17.1547 29.3262 15.6773 27.7689 12.9848 26.2307C6.43809 22.4894 6.51764 17.352 6.52298 17.1351H6.52124C7.20353 8.41849 10.3648 3.69985 11.9447 2.28815ZM6.5248 24.2242C6.46577 23.4013 6.43105 22.5575 6.41195 21.6982C7.40505 23.5436 9.16716 25.6493 12.2953 27.4374C16.7407 29.9784 17.5018 32.4917 17.5209 32.555L17.5211 32.5556C17.1808 34.0418 16.8076 35.3907 16.4343 36.5782C15.8492 35.5418 14.818 34.2675 12.9968 33.1824C7.51236 29.9167 6.64613 25.1788 6.5248 24.2242ZM13.3335 42.1112H14.2936L14.2934 42.1109C14.5694 41.5414 15.1284 40.3227 15.7639 38.5692C15.6284 37.9911 14.9792 35.9789 12.2847 34.3747C9.83516 32.9148 8.22404 31.177 7.15982 29.5485C8.29698 36.2103 10.3595 40.823 10.9845 42.1112H11.9446V37.2499H13.3335V42.1112Z" fill="white"/>
<path d="M12.6388 0.444336L12.6389 0.319336L12.6388 0.319336L12.6388 0.444336ZM15.3333 43.135L15.4433 43.1942L15.4434 43.1941L15.3333 43.135ZM15.1371 43.4996V43.6246H15.2118L15.2471 43.5588L15.1371 43.4996ZM10.1406 43.4996L10.0306 43.5588L10.0659 43.6246H10.1406V43.4996ZM9.94444 43.135L9.83431 43.1941L9.83437 43.1942L9.94444 43.135ZM11.9447 2.28808L11.9044 2.16974L11.8197 2.19858V2.28808H11.9447ZM11.9448 2.28803L12.0281 2.38126L11.9045 2.1697L11.9448 2.28803ZM11.9447 24.0556H11.8197V24.1806H11.9447V24.0556ZM13.3336 24.0556V24.1806H13.4586V24.0556H13.3336ZM13.3336 2.28808L13.4168 2.19482L13.2086 2.00895V2.28808H13.3336ZM17.9585 30.4703L17.8563 30.5422L18.0266 30.7846L18.0814 30.4934L17.9585 30.4703ZM12.9848 26.2307L12.9227 26.3392L12.9227 26.3392L12.9848 26.2307ZM6.52298 17.1351L6.64794 17.1382L6.65109 17.0101H6.52298V17.1351ZM6.52124 17.1351L6.39662 17.1254L6.38608 17.2601H6.52124V17.1351ZM6.41195 21.6982L6.52203 21.6389L6.28698 21.701L6.41195 21.6982ZM6.5248 24.2242L6.39993 24.2331L6.4008 24.2399L6.5248 24.2242ZM12.2953 27.4374L12.2333 27.5459H12.2333L12.2953 27.4374ZM17.5209 32.555L17.4013 32.5913L17.4013 32.5914L17.5209 32.555ZM17.5211 32.5556L17.643 32.5835L17.6504 32.5511L17.6407 32.5193L17.5211 32.5556ZM16.4343 36.5782L16.3255 36.6397L16.4671 36.8906L16.5536 36.6157L16.4343 36.5782ZM12.9968 33.1824L13.0608 33.075L13.0608 33.075L12.9968 33.1824ZM14.2936 42.1112V42.2362H14.5087L14.4021 42.0493L14.2936 42.1112ZM13.3335 42.1112H13.2085V42.2362H13.3335V42.1112ZM14.2934 42.1109L14.1809 42.0564L14.1522 42.1156L14.1848 42.1728L14.2934 42.1109ZM15.7639 38.5692L15.8814 38.6118L15.894 38.5768L15.8856 38.5407L15.7639 38.5692ZM12.2847 34.3747L12.2207 34.4821L12.2208 34.4821L12.2847 34.3747ZM7.15982 29.5485L7.26446 29.4801L7.0366 29.5696L7.15982 29.5485ZM10.9845 42.1112L10.872 42.1657L10.9062 42.2362H10.9845V42.1112ZM11.9446 42.1112V42.2362H12.0696V42.1112H11.9446ZM11.9446 37.2499V37.1249H11.8196V37.2499H11.9446ZM13.3335 37.2499H13.4585V37.1249H13.3335V37.2499ZM12.6388 0.319336C12.3302 0.319413 11.9803 0.441433 11.6092 0.666428C11.2368 0.892295 10.8346 1.22707 10.4191 1.6658C9.58816 2.5434 8.69578 3.84596 7.8753 5.55446C6.23389 8.97236 4.875 14.0256 4.875 20.583H5.125C5.125 14.0596 6.47694 9.04377 8.10066 5.66268C8.91274 3.97169 9.79149 2.69227 10.6007 1.83769C11.0053 1.41034 11.3904 1.09148 11.7389 0.880194C12.0887 0.66804 12.3932 0.569398 12.6389 0.569336L12.6388 0.319336ZM20.4027 20.583C20.4027 14.0254 19.0439 8.97214 17.4025 5.55429C16.582 3.84582 15.6897 2.5433 14.8587 1.66574C14.4433 1.22702 14.041 0.892262 13.6686 0.666407C13.2975 0.441423 12.9475 0.319413 12.6389 0.319336L12.6388 0.569336C12.8846 0.569398 13.1891 0.668037 13.5389 0.880179C13.8874 1.09145 14.2725 1.4103 14.6772 1.83763C15.4863 2.69217 16.3651 3.97155 17.1772 5.66252C18.8008 9.04355 20.1527 14.0593 20.1527 20.583H20.4027ZM15.4434 43.1941C15.6499 42.8096 20.4027 33.8285 20.4027 20.583H20.1527C20.1527 33.7713 15.4194 42.7104 15.2231 43.0759L15.4434 43.1941ZM15.2471 43.5588L15.4433 43.1942L15.2232 43.0758L15.027 43.4404L15.2471 43.5588ZM10.1406 43.6246H15.1371V43.3746H10.1406V43.6246ZM9.83437 43.1942L10.0306 43.5588L10.2507 43.4404L10.0545 43.0758L9.83437 43.1942ZM4.875 20.583C4.875 33.8285 9.62787 42.8095 9.83431 43.1941L10.0546 43.0759C9.85835 42.7103 5.125 33.7713 5.125 20.583H4.875ZM11.8197 2.28808V2.28815H12.0697V2.28808H11.8197ZM11.9045 2.1697L11.9044 2.16974L11.9849 2.40641L11.9851 2.40637L11.9045 2.1697ZM12.0279 2.38137L12.0281 2.38126L11.8615 2.19481L11.8614 2.19492L12.0279 2.38137ZM12.0697 24.0556V2.28815H11.8197V24.0556H12.0697ZM13.3336 23.9306H11.9447V24.1806H13.3336V23.9306ZM13.2086 2.28808V24.0556H13.4586V2.28808H13.2086ZM19.0141 20.5832C19.0141 9.62188 15.2277 3.81119 13.4168 2.19482L13.2503 2.38133C14.995 3.93856 18.7641 9.67338 18.7641 20.5832H19.0141ZM18.0814 30.4934C18.6295 27.5788 19.0141 24.2412 19.0141 20.5832H18.7641C18.7641 24.2237 18.3813 27.5458 17.8357 30.4472L18.0814 30.4934ZM12.9227 26.3392C15.6003 27.8689 17.0636 29.414 17.8563 30.5422L18.0608 30.3984C17.2458 29.2384 15.7542 27.6689 13.0468 26.1222L12.9227 26.3392ZM6.39802 17.1321C6.39202 17.3757 6.32188 22.5669 12.9227 26.3392L13.0468 26.1222C6.5543 22.4118 6.64326 17.3284 6.64794 17.1382L6.39802 17.1321ZM6.52124 17.2601H6.52298V17.0101H6.52124V17.2601ZM11.8614 2.19494C10.2517 3.63332 7.08074 8.38541 6.39662 17.1254L6.64586 17.1449C7.32633 8.45157 10.4779 3.76637 12.028 2.38136L11.8614 2.19494ZM6.28698 21.701C6.30611 22.5618 6.34091 23.4077 6.40012 24.2331L6.64948 24.2152C6.59064 23.3948 6.55599 22.5533 6.53692 21.6954L6.28698 21.701ZM12.3574 27.3289C9.24952 25.5524 7.50405 23.4637 6.52203 21.6389L6.30188 21.7574C7.30606 23.6234 9.08481 25.7462 12.2333 27.5459L12.3574 27.3289ZM17.6406 32.5188C17.6125 32.4262 16.8316 29.8864 12.3574 27.3289L12.2333 27.5459C16.6498 30.0704 17.391 32.5572 17.4013 32.5913L17.6406 32.5188ZM17.6407 32.5193L17.6405 32.5187L17.4013 32.5914L17.4015 32.592L17.6407 32.5193ZM16.5536 36.6157C16.9278 35.4251 17.3019 34.073 17.643 32.5835L17.3993 32.5277C17.0597 34.0105 16.6873 35.3563 16.3151 36.5407L16.5536 36.6157ZM12.9328 33.2898C14.7338 34.3628 15.7502 35.6206 16.3255 36.6397L16.5432 36.5168C15.9483 35.4629 14.9022 34.1721 13.0608 33.075L12.9328 33.2898ZM6.4008 24.2399C6.52473 25.2151 7.40259 29.9969 12.9328 33.2898L13.0608 33.075C7.62212 29.8366 6.76753 25.1426 6.6488 24.2084L6.4008 24.2399ZM14.2936 41.9862H13.3335V42.2362H14.2936V41.9862ZM14.1848 42.1728L14.185 42.1731L14.4021 42.0493L14.402 42.049L14.1848 42.1728ZM15.6463 38.5266C15.0126 40.2755 14.4553 41.4902 14.1809 42.0564L14.4059 42.1654C14.6835 41.5926 15.2443 40.3698 15.8814 38.6118L15.6463 38.5266ZM12.2208 34.4821C14.8794 36.065 15.5125 38.0443 15.6422 38.5977L15.8856 38.5407C15.7444 37.9378 15.0789 35.8928 12.3487 34.2673L12.2208 34.4821ZM7.05518 29.6169C8.12907 31.2602 9.7537 33.0118 12.2207 34.4821L12.3487 34.2674C9.91661 32.8179 8.31902 31.0938 7.26446 29.4801L7.05518 29.6169ZM11.097 42.0566C10.4756 40.7758 8.41769 36.1746 7.28304 29.5275L7.0366 29.5696C8.17627 36.246 10.2435 40.8702 10.872 42.1657L11.097 42.0566ZM11.9446 41.9862H10.9845V42.2362H11.9446V41.9862ZM11.8196 37.2499V42.1112H12.0696V37.2499H11.8196ZM13.3335 37.1249H11.9446V37.3749H13.3335V37.1249ZM13.4585 42.1112V37.2499H13.2085V42.1112H13.4585Z" fill="black"/>
</g>
<defs>
<filter id="filter0_d_0_2964" x="0.875" y="0.319336" width="23.5277" height="51.3053" filterUnits="userSpaceOnUse" color-interpolation-filters="sRGB">
<feFlood flood-opacity="0" result="BackgroundImageFix"/>
<feColorMatrix in="SourceAlpha" type="matrix" values="0 0 0 0 0 0 0 0 0 0 0 0 0 0 0 0 0 0 127 0" result="hardAlpha"/>
<feOffset dy="4"/>
<feGaussianBlur stdDeviation="2"/>
<feColorMatrix type="matrix" values="0 0 0 0 0 0 0 0 0 0 0 0 0 0 0 0 0 0 0.25 0"/>
<feBlend mode="normal" in2="BackgroundImageFix" result="effect1_dropShadow_0_2964"/>
<feBlend mode="normal" in="SourceGraphic" in2="effect1_dropShadow_0_2964" result="shape"/>
</filter>
</defs>
</svg>
