<svg width="52" height="33" viewBox="0 0 52 33" fill="none" xmlns="http://www.w3.org/2000/svg">
<path fill-rule="evenodd" clip-rule="evenodd" d="M49.75 22.2758V25.0223L49.7496 25.0225C50.3199 25.1384 50.7496 25.639 50.7496 26.2343V27.222C50.7496 27.8211 50.3199 28.3198 49.7496 28.4357V28.4609H43.1851C42.8218 30.7009 40.8628 32.4192 38.4995 32.4192C36.1362 32.4192 34.1773 30.7009 33.8159 28.4609H16.4349C16.0716 30.7009 14.1127 32.4192 11.7494 32.4192C9.38609 32.4192 7.42517 30.699 7.06384 28.4609H3.24939L2.50134 28.4628C1.80994 28.4628 1.24939 27.9062 1.24939 27.2239V26.2362C1.24939 25.552 1.81189 24.9973 2.50134 24.9973H3.24939V13.8665C3.24939 10.4551 6.05414 7.67961 9.50139 7.67961L15.2709 7.67575V5.70237C9.18539 5.12836 4.02894 4.05565 2.46839 2.51136C2.23597 2.28331 2.18128 1.93153 2.33362 1.64355C2.48597 1.35749 2.8063 1.199 3.13052 1.25699C8.10702 2.13832 15.8455 2.25622 22.7555 2.25622C24.2243 2.25622 25.6677 2.25236 27.0544 2.24656C27.407 2.2455 27.7559 2.24429 28.1008 2.2431L28.1009 2.2431L28.101 2.2431L28.1011 2.2431L28.1014 2.2431L28.1017 2.2431L28.1018 2.2431C29.0154 2.23995 29.9006 2.23689 30.7497 2.23689L37.1872 2.23883H37.1891C41.5466 2.23883 44.2302 2.20983 47.7106 2.04168C48.0544 2.02812 48.3727 2.24847 48.4684 2.57898C48.5641 2.9095 48.4176 3.2632 48.1149 3.43135C47.613 3.70967 46.988 3.96866 46.2477 4.20832V5.71012C46.2477 6.37888 45.8883 6.95675 45.2848 7.25827C45.029 7.38583 44.7594 7.44962 44.4919 7.44962C44.1286 7.44962 43.7673 7.33365 43.4548 7.10365L41.0349 5.32744C37.9529 5.77199 34.1366 6.05418 29.7499 6.15469V7.68156L34.9979 7.67963C38.3419 7.67963 41.4258 8.78712 43.9024 10.6484L44.1074 10.8069C46.1797 12.4206 47.8047 14.5718 48.7676 17.0477L48.7735 17.0593L48.7871 17.0921C48.8007 17.1304 48.8154 17.1675 48.83 17.2045L48.8301 17.2046L48.8301 17.2047L48.8302 17.2048L48.8302 17.2049L48.8303 17.2051C48.8429 17.237 48.8555 17.2687 48.8672 17.3009L49.166 18.0682H49.1231C49.5293 19.4018 49.75 20.8147 49.75 22.2758ZM36.0002 16.5856H46.9317H46.9319C46.0921 14.8712 44.8811 13.3501 43.3792 12.1325H36.0002C35.8654 12.1325 35.7502 12.2465 35.7502 12.3799V16.3382C35.7502 16.4716 35.8654 16.5856 36.0002 16.5856ZM44.75 5.71007C44.75 5.81251 44.7051 5.88596 44.6113 5.93234C44.5176 5.97873 44.4336 5.971 44.3496 5.90915L43.0918 4.9872C43.6817 4.8751 44.2344 4.75527 44.75 4.62964L44.75 5.71007ZM26.0908 3.73571L26.0906 3.73571C25.0042 3.73905 23.8892 3.74248 22.758 3.74248L22.7585 3.74244C18.319 3.74244 13.5376 3.69219 9.33647 3.42353C13.3715 4.17735 19.1745 4.71078 26.0005 4.71078C32.2735 4.71078 37.7601 4.34746 41.7425 3.70769C40.385 3.72316 38.9182 3.72895 37.1917 3.72895H37.1897L30.7502 3.72316C29.5823 3.72316 28.3459 3.72702 27.0608 3.73282L26.0908 3.73571ZM16.7715 5.8357C19.7813 6.07343 22.957 6.19519 26 6.19519C26.7637 6.19519 27.5137 6.1894 28.25 6.17973V7.67955H16.7715V5.8357ZM8.50002 27.7189C8.50002 29.4931 9.95707 30.935 11.75 30.935C13.543 30.935 15 29.4931 15 27.7189C15 25.9446 13.543 24.5027 11.75 24.5027C9.95707 24.5027 8.50002 25.9446 8.50002 27.7189ZM38.5 30.935C36.7071 30.935 35.25 29.4931 35.25 27.7189C35.25 25.9446 36.7071 24.5027 38.5 24.5027C40.293 24.5027 41.75 25.9446 41.75 27.7189C41.75 29.4931 40.293 30.935 38.5 30.935ZM38.5 23.0183C40.8633 23.0183 42.8242 24.7366 43.1856 26.9767H49.25V26.4819H44.75V24.9975H48.25V22.2781C48.25 20.8053 48 19.3924 47.5469 18.0704H35.9999C35.035 18.0704 34.2499 17.2934 34.2499 16.3386V12.3803C34.2499 11.4255 35.035 10.6485 35.9999 10.6485H41.1114C39.2811 9.70339 37.201 9.16416 34.9979 9.16416H9.50187C6.88077 9.16416 4.74992 11.2747 4.74992 13.8666V16.586H12.2849V18.0704H4.74992V24.9975H5.74992V26.4819H2.74992V26.9767H7.06437C7.42767 24.7366 9.38662 23.0183 11.7499 23.0183C14.1132 23.0183 16.0741 24.7366 16.4355 26.9767H33.8145C34.1778 24.7366 36.1367 23.0183 38.5 23.0183Z" fill="white"/>
<path d="M49.75 25.0223L49.8336 25.3105L50.05 25.2477V25.0223H49.75ZM49.7496 25.0225L49.666 24.7343L49.6898 25.3164L49.7496 25.0225ZM49.7496 28.4357L49.6898 28.1418L49.4496 28.1906V28.4357H49.7496ZM49.7496 28.4609V28.7609H50.0496V28.4609H49.7496ZM43.1851 28.4609V28.1609H42.9298L42.889 28.4128L43.1851 28.4609ZM33.8159 28.4609L34.1121 28.4131L34.0714 28.1609H33.8159V28.4609ZM16.4349 28.4609V28.1609H16.1797L16.1388 28.4128L16.4349 28.4609ZM7.06384 28.4609L7.36 28.413L7.31929 28.1609H7.06384V28.4609ZM3.24939 28.4609V28.1609L3.24861 28.1609L3.24939 28.4609ZM2.50134 28.4628V28.7628L2.50211 28.7628L2.50134 28.4628ZM3.24939 24.9973V25.2973H3.54939V24.9973H3.24939ZM9.50139 7.67961V7.97961L9.50159 7.97961L9.50139 7.67961ZM15.2709 7.67575L15.2711 7.97575L15.5709 7.97555V7.67575H15.2709ZM15.2709 5.70237H15.5709V5.42934L15.2991 5.4037L15.2709 5.70237ZM2.46839 2.51136L2.67941 2.29812L2.6785 2.29722L2.46839 2.51136ZM2.33362 1.64355L2.06884 1.50252L2.06844 1.50326L2.33362 1.64355ZM3.13052 1.25699L3.07771 1.5523L3.07821 1.55239L3.13052 1.25699ZM27.0544 2.24656L27.0535 1.94656L27.0531 1.94656L27.0544 2.24656ZM28.1008 2.2431L28.1018 2.5431L28.1019 2.5431L28.1008 2.2431ZM28.1011 2.2431L28.1 1.9431L28.1 1.9431L28.1011 2.2431ZM28.1014 2.2431L28.1005 1.9431L28.1004 1.9431L28.1014 2.2431ZM28.1017 2.2431L28.1026 2.5431L28.1028 2.5431L28.1017 2.2431ZM28.1018 2.2431L28.1007 1.9431L28.1006 1.9431L28.1018 2.2431ZM30.7497 2.23689L30.7498 1.93689H30.7497V2.23689ZM37.1872 2.23883L37.1871 2.53883H37.1872V2.23883ZM47.7106 2.04168L47.6988 1.7419L47.6962 1.74203L47.7106 2.04168ZM48.4684 2.57898L48.7566 2.49554V2.49553L48.4684 2.57898ZM48.1149 3.43135L48.2604 3.69372L48.2606 3.69361L48.1149 3.43135ZM46.2477 4.20832L46.1553 3.92291L45.9477 3.99012V4.20832H46.2477ZM45.2848 7.25827L45.4187 7.52675L45.4189 7.52664L45.2848 7.25827ZM43.4548 7.10365L43.6326 6.86203L43.6323 6.8618L43.4548 7.10365ZM41.0349 5.32744L41.2124 5.0856L41.1135 5.013L40.992 5.03052L41.0349 5.32744ZM29.7499 6.15469L29.743 5.85476L29.4499 5.86148V6.15469H29.7499ZM29.7499 7.68156H29.4499V7.98167L29.75 7.98156L29.7499 7.68156ZM34.9979 7.67963V7.37963H34.9978L34.9979 7.67963ZM43.9024 10.6484L44.0858 10.411L44.0826 10.4086L43.9024 10.6484ZM44.1074 10.8069L44.2918 10.5702L44.2909 10.5695L44.1074 10.8069ZM48.7676 17.0477L48.488 17.1564L48.4933 17.17L48.4998 17.183L48.7676 17.0477ZM48.7735 17.0593L49.0504 16.944L49.0462 16.9338L49.0412 16.924L48.7735 17.0593ZM48.7871 17.0921L49.0698 16.9918L49.0672 16.9843L49.0641 16.9769L48.7871 17.0921ZM48.83 17.2045L48.5511 17.3149L48.5515 17.3159L48.83 17.2045ZM48.8301 17.2046L49.1099 17.0963L49.1086 17.0932L48.8301 17.2046ZM48.8301 17.2047L48.5503 17.313L48.5516 17.3161L48.8301 17.2047ZM48.8302 17.2048L49.11 17.0965L49.1087 17.0934L48.8302 17.2048ZM48.8302 17.2049L48.5504 17.3132L48.5517 17.3164L48.8302 17.2049ZM48.8303 17.2051L49.1092 17.0946L49.1088 17.0937L48.8303 17.2051ZM48.8672 17.3009L48.5853 17.4037L48.5877 17.4097L48.8672 17.3009ZM49.166 18.0682V18.3682H49.6048L49.4456 17.9593L49.166 18.0682ZM49.1231 18.0682V17.7682H48.7181L48.8361 18.1556L49.1231 18.0682ZM46.9319 16.5856V16.8856H47.4129L47.2013 16.4536L46.9319 16.5856ZM43.3792 12.1325L43.5681 11.8994L43.4855 11.8325H43.3792V12.1325ZM44.6113 5.93234L44.4783 5.66346L44.4783 5.66346L44.6113 5.93234ZM44.75 5.71007L44.45 5.71007V5.71007H44.75ZM44.3496 5.90915L44.5275 5.66758L44.527 5.66719L44.3496 5.90915ZM43.0918 4.9872L43.0358 4.69248L42.358 4.82129L42.9145 5.22917L43.0918 4.9872ZM44.75 4.62964L45.05 4.62964L45.05 4.24776L44.679 4.33817L44.75 4.62964ZM26.0906 3.73571L26.0915 4.03571L26.0918 4.03571L26.0906 3.73571ZM26.0908 3.73571L26.0899 3.43571L26.0896 3.43571L26.0908 3.73571ZM22.758 3.74248L22.7309 3.44371L22.758 4.04248V3.74248ZM22.7585 3.74244L22.7856 4.04121L22.7585 3.44244V3.74244ZM9.33647 3.42353L9.35561 3.12415L9.28138 3.71843L9.33647 3.42353ZM41.7425 3.70769L41.7901 4.0039L41.739 3.40771L41.7425 3.70769ZM37.1897 3.72895L37.1894 4.02895H37.1897V3.72895ZM30.7502 3.72316L30.7505 3.42316H30.7502V3.72316ZM27.0608 3.73282L27.0617 4.03282L27.0621 4.03282L27.0608 3.73282ZM16.7715 5.8357L16.7951 5.53663L16.4715 5.51107V5.8357H16.7715ZM28.25 6.17973H28.55V5.87577L28.2461 5.87976L28.25 6.17973ZM28.25 7.67955V7.97955H28.55V7.67955H28.25ZM16.7715 7.67955H16.4715V7.97955H16.7715V7.67955ZM43.1856 26.9767L42.8894 27.0244L42.9301 27.2767H43.1856V26.9767ZM49.25 26.9767V27.2767H49.55V26.9767H49.25ZM49.25 26.4819H49.55V26.1819H49.25V26.4819ZM44.75 26.4819H44.45V26.7819H44.75V26.4819ZM44.75 24.9975V24.6975H44.45V24.9975H44.75ZM48.25 24.9975V25.2975H48.55V24.9975H48.25ZM47.5469 18.0704L47.8307 17.9731L47.7612 17.7704H47.5469V18.0704ZM41.1114 10.6485V10.9485L41.249 10.382L41.1114 10.6485ZM4.74992 16.586H4.44992V16.886H4.74992V16.586ZM12.2849 16.586H12.5849V16.286H12.2849V16.586ZM12.2849 18.0704V18.3704H12.5849V18.0704H12.2849ZM4.74992 18.0704V17.7704H4.44992V18.0704H4.74992ZM4.74992 24.9975H4.44992V25.2975H4.74992V24.9975ZM5.74992 24.9975H6.04992V24.6975H5.74992V24.9975ZM5.74992 26.4819V26.7819H6.04992V26.4819H5.74992ZM2.74992 26.4819V26.1819H2.44992V26.4819H2.74992ZM2.74992 26.9767H2.44992V27.2767H2.74992V26.9767ZM7.06437 26.9767V27.2767H7.31963L7.3605 27.0247L7.06437 26.9767ZM16.4355 26.9767L16.1393 27.0244L16.18 27.2767H16.4355V26.9767ZM33.8145 26.9767V27.2767H34.0697L34.1106 27.0247L33.8145 26.9767ZM50.05 25.0223V22.2758H49.45V25.0223H50.05ZM49.8332 25.3106L49.8336 25.3105L49.6664 24.7342L49.666 24.7343L49.8332 25.3106ZM51.0496 26.2343C51.0496 25.491 50.5141 24.8718 49.8094 24.7285L49.6898 25.3164C50.1257 25.4051 50.4496 25.7871 50.4496 26.2343H51.0496ZM51.0496 27.222V26.2343H50.4496V27.222H51.0496ZM49.8094 28.7297C50.5141 28.5864 51.0496 27.9692 51.0496 27.222H50.4496C50.4496 27.673 50.1257 28.0531 49.6898 28.1418L49.8094 28.7297ZM50.0496 28.4609V28.4357H49.4496V28.4609H50.0496ZM43.1851 28.7609H49.7496V28.1609H43.1851V28.7609ZM38.4995 32.7192C41.011 32.7192 43.0945 30.8932 43.4812 28.5089L42.889 28.4128C42.549 30.5087 40.7146 32.1192 38.4995 32.1192V32.7192ZM33.5198 28.5086C33.9044 30.8932 35.9881 32.7192 38.4995 32.7192V32.1192C36.2844 32.1192 34.4501 30.5087 34.1121 28.4131L33.5198 28.5086ZM16.4349 28.7609H33.8159V28.1609H16.4349V28.7609ZM11.7494 32.7192C14.2609 32.7192 16.3444 30.8932 16.7311 28.5089L16.1388 28.4128C15.7989 30.5087 13.9645 32.1192 11.7494 32.1192V32.7192ZM6.76767 28.5087C7.15233 30.8913 9.23799 32.7192 11.7494 32.7192V32.1192C9.53419 32.1192 7.69801 30.5067 7.36 28.413L6.76767 28.5087ZM3.24939 28.7609H7.06384V28.1609H3.24939V28.7609ZM2.50211 28.7628L3.25016 28.7609L3.24861 28.1609L2.50056 28.1628L2.50211 28.7628ZM0.94939 27.2239C0.94939 28.0745 1.64692 28.7628 2.50134 28.7628V28.1628C1.97296 28.1628 1.54939 27.7378 1.54939 27.2239H0.94939ZM0.94939 26.2362V27.2239H1.54939V26.2362H0.94939ZM2.50134 24.6973C1.64948 24.6973 0.94939 25.3831 0.94939 26.2362H1.54939C1.54939 25.721 1.9743 25.2973 2.50134 25.2973V24.6973ZM3.24939 24.6973H2.50134V25.2973H3.24939V24.6973ZM2.94939 13.8665V24.9973H3.54939V13.8665H2.94939ZM9.50139 7.37961C5.89143 7.37961 2.94939 10.2865 2.94939 13.8665H3.54939C3.54939 10.6237 6.21685 7.97961 9.50139 7.97961V7.37961ZM15.2707 7.37575L9.50119 7.37961L9.50159 7.97961L15.2711 7.97575L15.2707 7.37575ZM14.9709 5.70237V7.67575H15.5709V5.70237H14.9709ZM2.25737 2.7246C2.68842 3.15116 3.34535 3.52577 4.15769 3.85837C4.97484 4.19292 5.97196 4.49397 7.10349 4.76261C9.36682 5.29996 12.1923 5.71332 15.2427 6.00104L15.2991 5.4037C12.264 5.11742 9.46849 4.70742 7.24208 4.17884C6.12874 3.91451 5.1638 3.62195 4.38503 3.3031C3.60147 2.98229 3.02864 2.64371 2.67941 2.29812L2.25737 2.7246ZM2.06844 1.50326C1.85405 1.90854 1.93111 2.40448 2.25828 2.7255L2.6785 2.29722C2.54083 2.16214 2.50851 1.95451 2.59881 1.78383L2.06844 1.50326ZM3.18334 0.961675C2.73018 0.880631 2.28199 1.10231 2.06884 1.50252L2.59841 1.78457C2.68996 1.61267 2.88243 1.51738 3.07771 1.5523L3.18334 0.961675ZM22.7555 1.95622C15.8393 1.95622 8.12849 1.83746 3.18284 0.961586L3.07821 1.55239C8.08556 2.43919 15.8518 2.55622 22.7555 2.55622V1.95622ZM27.0531 1.94656C25.6667 1.95236 24.2238 1.95622 22.7555 1.95622V2.55622C24.2248 2.55622 25.6686 2.55235 27.0556 2.54655L27.0531 1.94656ZM28.0998 1.94311C27.7549 1.9443 27.406 1.9455 27.0535 1.94656L27.0553 2.54656C27.408 2.5455 27.757 2.54429 28.1018 2.5431L28.0998 1.94311ZM28.0998 1.94311L28.0997 1.94311L28.1019 2.5431L28.102 2.5431L28.0998 1.94311ZM28.0999 1.94311L28.0998 1.94311L28.102 2.5431L28.1021 2.5431L28.0999 1.94311ZM28.1 1.9431L28.0999 1.94311L28.1021 2.5431L28.1022 2.5431L28.1 1.9431ZM28.1004 1.9431L28.1 1.9431L28.1022 2.5431L28.1025 2.5431L28.1004 1.9431ZM28.1007 1.9431L28.1005 1.9431L28.1024 2.5431L28.1026 2.5431L28.1007 1.9431ZM28.1006 1.9431L28.1005 1.9431L28.1028 2.5431L28.1029 2.5431L28.1006 1.9431ZM30.7497 1.93689C29.9 1.93689 29.0143 1.93995 28.1007 1.9431L28.1028 2.5431C29.0166 2.53995 29.9012 2.53689 30.7497 2.53689V1.93689ZM37.1873 1.93883L30.7498 1.93689L30.7496 2.53689L37.1871 2.53883L37.1873 1.93883ZM37.1891 1.93883H37.1872V2.53883H37.1891V1.93883ZM47.6962 1.74203C44.2229 1.90983 41.545 1.93883 37.1891 1.93883V2.53883C41.5482 2.53883 44.2374 2.50983 47.7251 2.34133L47.6962 1.74203ZM48.7566 2.49553C48.6209 2.02703 48.1746 1.72315 47.6988 1.74191L47.7225 2.34145C47.9341 2.3331 48.1245 2.4699 48.1803 2.66242L48.7566 2.49553ZM48.2606 3.69361C48.6847 3.45805 48.8915 2.96141 48.7566 2.49554L48.1803 2.66241C48.2368 2.85758 48.1506 3.06836 47.9692 3.16909L48.2606 3.69361ZM46.3401 4.49374C47.0923 4.25022 47.7365 3.98423 48.2604 3.69372L47.9694 3.16899C47.4895 3.43511 46.8837 3.68709 46.1553 3.92291L46.3401 4.49374ZM46.5477 5.71012V4.20832H45.9477V5.71012H46.5477ZM45.4189 7.52664C46.1229 7.17489 46.5477 6.4938 46.5477 5.71012H45.9477C45.9477 6.26395 45.6537 6.73862 45.1507 6.9899L45.4189 7.52664ZM44.4919 7.74962C44.8077 7.74962 45.1229 7.67423 45.4187 7.52675L45.151 6.98979C44.935 7.09744 44.7112 7.14962 44.4919 7.14962V7.74962ZM43.2769 7.34526C43.6404 7.61274 44.0639 7.74962 44.4919 7.74962V7.14962C44.1934 7.14962 43.8942 7.05455 43.6326 6.86203L43.2769 7.34526ZM40.8573 5.56929L43.2772 7.34549L43.6323 6.8618L41.2124 5.0856L40.8573 5.56929ZM29.7567 6.45461C34.1512 6.35393 37.9802 6.07115 41.0777 5.62437L40.992 5.03052C37.9255 5.47284 34.1219 5.75444 29.743 5.85476L29.7567 6.45461ZM30.0499 7.68156V6.15469H29.4499V7.68156H30.0499ZM34.9978 7.37963L29.7498 7.38156L29.75 7.98156L34.998 7.97963L34.9978 7.37963ZM44.0826 10.4086C41.556 8.50965 38.4092 7.37963 34.9979 7.37963V7.97963C38.2746 7.97963 41.2957 9.0646 43.7221 10.8882L44.0826 10.4086ZM44.2909 10.5695L44.0858 10.411L43.7189 10.8858L43.924 11.0442L44.2909 10.5695ZM49.0472 16.9389C48.0642 14.4115 46.4058 12.2164 44.2918 10.5702L43.9231 11.0436C45.9536 12.6247 47.5451 14.7321 48.488 17.1564L49.0472 16.9389ZM49.0412 16.924L49.0354 16.9124L48.4998 17.183L48.5057 17.1946L49.0412 16.924ZM49.0641 16.9769L49.0504 16.944L48.4965 17.1745L48.5101 17.2074L49.0641 16.9769ZM49.109 17.094C49.094 17.0563 49.0813 17.0241 49.0698 16.9918L48.5044 17.1925C48.5201 17.2366 48.5368 17.2787 48.5511 17.3149L49.109 17.094ZM49.1086 17.0932L49.1086 17.0931L48.5515 17.3159L48.5515 17.316L49.1086 17.0932ZM49.1099 17.0964L49.1099 17.0963L48.5503 17.3129L48.5504 17.313L49.1099 17.0964ZM49.1087 17.0934L49.1087 17.0933L48.5516 17.3161L48.5516 17.3163L49.1087 17.0934ZM49.11 17.0966L49.11 17.0965L48.5504 17.3131L48.5504 17.3132L49.11 17.0966ZM49.1088 17.0937L49.1088 17.0935L48.5517 17.3164L48.5517 17.3165L49.1088 17.0937ZM49.149 17.198C49.1357 17.1614 49.1216 17.1259 49.1092 17.0946L48.5513 17.3155C48.5642 17.348 48.5753 17.376 48.5854 17.4037L49.149 17.198ZM49.4456 17.9593L49.1468 17.192L48.5877 17.4097L48.8865 18.1771L49.4456 17.9593ZM49.1231 18.3682H49.166V17.7682H49.1231V18.3682ZM50.05 22.2758C50.05 20.7843 49.8247 19.342 49.41 17.9808L48.8361 18.1556C49.2339 19.4616 49.45 20.845 49.45 22.2758H50.05ZM46.9317 16.2856H36.0002V16.8856H46.9317V16.2856ZM46.9319 16.2856H46.9317V16.8856H46.9319V16.2856ZM43.1902 12.3655C44.6585 13.5559 45.8419 15.0426 46.6625 16.7176L47.2013 16.4536C46.3422 14.6999 45.1037 13.1443 43.5681 11.8994L43.1902 12.3655ZM36.0002 12.4325H43.3792V11.8325H36.0002V12.4325ZM36.0502 12.3799C36.0502 12.4009 36.0413 12.4138 36.0356 12.4194C36.03 12.425 36.0184 12.4325 36.0002 12.4325V11.8325C35.7027 11.8325 35.4502 12.0779 35.4502 12.3799H36.0502ZM36.0502 16.3382V12.3799H35.4502V16.3382H36.0502ZM36.0002 16.2856C36.0184 16.2856 36.03 16.293 36.0356 16.2987C36.0413 16.3043 36.0502 16.3172 36.0502 16.3382H35.4502C35.4502 16.6402 35.7027 16.8856 36.0002 16.8856V16.2856ZM44.7444 6.20123C44.8315 6.15813 44.9129 6.09353 44.9707 6.00046C45.0285 5.90739 45.05 5.80615 45.05 5.71007H44.45C44.45 5.7138 44.4496 5.71212 44.451 5.70659C44.4525 5.70072 44.4556 5.69264 44.461 5.68399C44.4663 5.67534 44.4722 5.66912 44.4766 5.66531C44.4807 5.66174 44.4821 5.66157 44.4783 5.66346L44.7444 6.20123ZM44.1717 6.15071C44.248 6.2069 44.3411 6.25039 44.4501 6.26014C44.5592 6.2699 44.6588 6.24357 44.7444 6.20123L44.4783 5.66346C44.4737 5.66572 44.4743 5.66485 44.4794 5.66375C44.4849 5.66255 44.4934 5.66162 44.5036 5.66253C44.5137 5.66344 44.5218 5.66585 44.5269 5.66793C44.5315 5.66986 44.5318 5.67071 44.5275 5.66758L44.1717 6.15071ZM42.9145 5.22917L44.1723 6.15111L44.527 5.66719L43.2692 4.74524L42.9145 5.22917ZM44.679 4.33817C44.1687 4.46252 43.6209 4.58128 43.0358 4.69248L43.1478 5.28193C43.7424 5.16893 44.3002 5.04802 44.821 4.92111L44.679 4.33817ZM45.05 5.71007L45.05 4.62964L44.45 4.62964L44.45 5.71007L45.05 5.71007ZM26.0918 4.03571L26.092 4.03571L26.0896 3.43571L26.0895 3.43571L26.0918 4.03571ZM22.758 4.04248C23.8897 4.04248 25.0052 4.03905 26.0915 4.03571L26.0897 3.43571C25.0032 3.43905 23.8887 3.44248 22.758 3.44248V4.04248ZM22.7313 3.44367L22.7309 3.44371L22.7852 4.04125L22.7856 4.04121L22.7313 3.44367ZM9.31732 3.72292C13.5287 3.99223 18.3181 4.04244 22.7585 4.04244V3.44244C18.3198 3.44244 13.5466 3.39215 9.35561 3.12415L9.31732 3.72292ZM26.0005 4.41078C19.1881 4.41078 13.4041 3.87826 9.39156 3.12864L9.28138 3.71843C13.3388 4.47644 19.1609 5.01078 26.0005 5.01078V4.41078ZM41.6949 3.41149C37.7337 4.04784 32.2643 4.41078 26.0005 4.41078V5.01078C32.2826 5.01078 37.7864 4.64707 41.7901 4.0039L41.6949 3.41149ZM37.1917 4.02895C38.9188 4.02895 40.3869 4.02315 41.7459 4.00767L41.739 3.40771C40.3832 3.42316 38.9176 3.42895 37.1917 3.42895V4.02895ZM37.1897 4.02895H37.1917V3.42895H37.1897V4.02895ZM30.7499 4.02316L37.1894 4.02895L37.19 3.42895L30.7505 3.42316L30.7499 4.02316ZM27.0621 4.03282C28.347 4.02702 29.5829 4.02316 30.7502 4.02316V3.42316C29.5816 3.42316 28.3448 3.42702 27.0594 3.43282L27.0621 4.03282ZM26.0917 4.03571L27.0617 4.03282L27.0599 3.43282L26.0899 3.43571L26.0917 4.03571ZM26 5.89519C22.9646 5.89519 19.7968 5.77372 16.7951 5.53663L16.7479 6.13477C19.7658 6.37314 22.9494 6.49519 26 6.49519V5.89519ZM28.2461 5.87976C27.5108 5.88941 26.7622 5.89519 26 5.89519V6.49519C26.7652 6.49519 27.5165 6.48939 28.254 6.47971L28.2461 5.87976ZM28.55 7.67955V6.17973H27.95V7.67955H28.55ZM16.7715 7.97955H28.25V7.37955H16.7715V7.97955ZM16.4715 5.8357V7.67955H17.0715V5.8357H16.4715ZM11.75 30.635C10.1198 30.635 8.80002 29.3245 8.80002 27.7189H8.20002C8.20002 29.6618 9.79435 31.235 11.75 31.235V30.635ZM14.7 27.7189C14.7 29.3245 13.3802 30.635 11.75 30.635V31.235C13.7057 31.235 15.3 29.6618 15.3 27.7189H14.7ZM11.75 24.8027C13.3802 24.8027 14.7 26.1132 14.7 27.7189H15.3C15.3 25.7759 13.7057 24.2027 11.75 24.2027V24.8027ZM8.80002 27.7189C8.80002 26.1132 10.1198 24.8027 11.75 24.8027V24.2027C9.79435 24.2027 8.20002 25.7759 8.20002 27.7189H8.80002ZM34.95 27.7189C34.95 29.6618 36.5443 31.235 38.5 31.235V30.635C36.8698 30.635 35.55 29.3245 35.55 27.7189H34.95ZM38.5 24.2027C36.5443 24.2027 34.95 25.7759 34.95 27.7189H35.55C35.55 26.1132 36.8698 24.8027 38.5 24.8027V24.2027ZM42.05 27.7189C42.05 25.7759 40.4557 24.2027 38.5 24.2027V24.8027C40.1302 24.8027 41.45 26.1132 41.45 27.7189H42.05ZM38.5 31.235C40.4557 31.235 42.05 29.6618 42.05 27.7189H41.45C41.45 29.3245 40.1302 30.635 38.5 30.635V31.235ZM43.4817 26.9289C43.0971 24.5442 41.0113 22.7183 38.5 22.7183V23.3183C40.7153 23.3183 42.5514 24.929 42.8894 27.0244L43.4817 26.9289ZM49.25 26.6767H43.1856V27.2767H49.25V26.6767ZM48.95 26.4819V26.9767H49.55V26.4819H48.95ZM44.75 26.7819H49.25V26.1819H44.75V26.7819ZM44.45 24.9975V26.4819H45.05V24.9975H44.45ZM48.25 24.6975H44.75V25.2975H48.25V24.6975ZM47.95 22.2781V24.9975H48.55V22.2781H47.95ZM47.2631 18.1677C47.7058 19.4595 47.95 20.8395 47.95 22.2781H48.55C48.55 20.771 48.2941 19.3254 47.8307 17.9731L47.2631 18.1677ZM35.9999 18.3704H47.5469V17.7704H35.9999V18.3704ZM33.9499 16.3386C33.9499 17.4621 34.8723 18.3704 35.9999 18.3704V17.7704C35.1977 17.7704 34.5499 17.1248 34.5499 16.3386H33.9499ZM33.9499 12.3803V16.3386H34.5499V12.3803H33.9499ZM35.9999 10.3485C34.8723 10.3485 33.9499 11.2569 33.9499 12.3803H34.5499C34.5499 11.5941 35.1977 10.9485 35.9999 10.9485V10.3485ZM41.1114 10.3485H35.9999V10.9485H41.1114V10.3485ZM34.9979 9.46416C37.1515 9.46416 39.1846 9.9912 40.9737 10.9151L41.249 10.382C39.3776 9.41558 37.2504 8.86416 34.9979 8.86416V9.46416ZM9.50187 9.46416H34.9979V8.86416H9.50187V9.46416ZM5.04992 13.8666C5.04992 11.4433 7.04356 9.46416 9.50187 9.46416V8.86416C6.71797 8.86416 4.44992 11.1062 4.44992 13.8666H5.04992ZM5.04992 16.586V13.8666H4.44992V16.586H5.04992ZM12.2849 16.286H4.74992V16.886H12.2849V16.286ZM12.5849 18.0704V16.586H11.9849V18.0704H12.5849ZM4.74992 18.3704H12.2849V17.7704H4.74992V18.3704ZM5.04992 24.9975V18.0704H4.44992V24.9975H5.04992ZM5.74992 24.6975H4.74992V25.2975H5.74992V24.6975ZM6.04992 26.4819V24.9975H5.44992V26.4819H6.04992ZM2.74992 26.7819H5.74992V26.1819H2.74992V26.7819ZM3.04992 26.9767V26.4819H2.44992V26.9767H3.04992ZM7.06437 26.6767H2.74992V27.2767H7.06437V26.6767ZM11.7499 22.7183C9.23842 22.7183 7.15492 24.5443 6.76823 26.9286L7.3605 27.0247C7.70041 24.9288 9.53481 23.3183 11.7499 23.3183V22.7183ZM16.7316 26.9289C16.347 24.5442 14.2612 22.7183 11.7499 22.7183V23.3183C13.9652 23.3183 15.8013 24.929 16.1393 27.0244L16.7316 26.9289ZM33.8145 26.6767H16.4355V27.2767H33.8145V26.6767ZM38.5 22.7183C35.9885 22.7183 33.905 24.5443 33.5183 26.9286L34.1106 27.0247C34.4505 24.9288 36.2849 23.3183 38.5 23.3183V22.7183Z" fill="#222532"/>
<path fill-rule="evenodd" clip-rule="evenodd" d="M23.75 12.3798V16.3382C23.75 17.293 22.9649 18.0699 22 18.0699H17C16.0352 18.0699 15.25 17.293 15.25 16.3382V12.3798C15.25 11.425 16.0352 10.6481 17 10.6481H22C22.9649 10.6481 23.75 11.425 23.75 12.3798ZM16.75 12.3798V16.3382C16.75 16.4735 16.8653 16.5856 17 16.5856H22C22.1348 16.5856 22.25 16.4715 22.25 16.3382V12.3798C22.25 12.2465 22.1348 12.1324 22 12.1324H17C16.8653 12.1324 16.75 12.2465 16.75 12.3798Z" fill="white"/>
<path d="M24.05 16.3382V12.3798H23.45V16.3382H24.05ZM22 18.3699C23.1276 18.3699 24.05 17.4616 24.05 16.3382H23.45C23.45 17.1243 22.8022 17.7699 22 17.7699V18.3699ZM17 18.3699H22V17.7699H17V18.3699ZM14.95 16.3382C14.95 17.4616 15.8725 18.3699 17 18.3699V17.7699C16.1979 17.7699 15.55 17.1243 15.55 16.3382H14.95ZM14.95 12.3798V16.3382H15.55V12.3798H14.95ZM17 10.3481C15.8725 10.3481 14.95 11.2564 14.95 12.3798H15.55C15.55 11.5937 16.1979 10.9481 17 10.9481V10.3481ZM22 10.3481H17V10.9481H22V10.3481ZM24.05 12.3798C24.05 11.2564 23.1276 10.3481 22 10.3481V10.9481C22.8022 10.9481 23.45 11.5937 23.45 12.3798H24.05ZM17.05 16.3382V12.3798H16.45V16.3382H17.05ZM17 16.2856C17.0167 16.2856 17.0284 16.2924 17.0349 16.2988C17.0417 16.3055 17.05 16.3189 17.05 16.3382H16.45C16.45 16.6436 16.7041 16.8856 17 16.8856V16.2856ZM22 16.2856H17V16.8856H22V16.2856ZM21.95 16.3382C21.95 16.3172 21.9589 16.3043 21.9645 16.2986C21.9702 16.293 21.9818 16.2856 22 16.2856V16.8856C22.2975 16.8856 22.55 16.6402 22.55 16.3382H21.95ZM21.95 12.3798V16.3382H22.55V12.3798H21.95ZM22 12.4324C21.9818 12.4324 21.9702 12.425 21.9645 12.4194C21.9589 12.4138 21.95 12.4008 21.95 12.3798H22.55C22.55 12.0778 22.2975 11.8324 22 11.8324V12.4324ZM17 12.4324H22V11.8324H17V12.4324ZM17.05 12.3798C17.05 12.4008 17.0412 12.4138 17.0355 12.4194C17.0298 12.425 17.0182 12.4324 17 12.4324V11.8324C16.7025 11.8324 16.45 12.0778 16.45 12.3798H17.05Z" fill="#222532"/>
<path fill-rule="evenodd" clip-rule="evenodd" d="M26.5 10.6481H31.5C32.4648 10.6481 33.25 11.425 33.25 12.3798V16.3382C33.25 17.293 32.4648 18.0699 31.5 18.0699H26.5C25.5351 18.0699 24.75 17.293 24.75 16.3382V12.3798C24.75 11.425 25.5351 10.6481 26.5 10.6481ZM31.5 16.5856C31.6348 16.5856 31.75 16.4715 31.75 16.3382V12.3798C31.75 12.2465 31.6348 12.1324 31.5 12.1324H26.5C26.3652 12.1324 26.25 12.2465 26.25 12.3798V16.3382C26.25 16.4715 26.3652 16.5856 26.5 16.5856H31.5Z" fill="white"/>
<path d="M31.5 10.3481H26.5V10.9481H31.5V10.3481ZM33.55 12.3798C33.55 11.2564 32.6276 10.3481 31.5 10.3481V10.9481C32.3021 10.9481 32.95 11.5937 32.95 12.3798H33.55ZM33.55 16.3382V12.3798H32.95V16.3382H33.55ZM31.5 18.3699C32.6276 18.3699 33.55 17.4616 33.55 16.3382H32.95C32.95 17.1243 32.3021 17.7699 31.5 17.7699V18.3699ZM26.5 18.3699H31.5V17.7699H26.5V18.3699ZM24.45 16.3382C24.45 17.4616 25.3724 18.3699 26.5 18.3699V17.7699C25.6979 17.7699 25.05 17.1243 25.05 16.3382H24.45ZM24.45 12.3798V16.3382H25.05V12.3798H24.45ZM26.5 10.3481C25.3724 10.3481 24.45 11.2564 24.45 12.3798H25.05C25.05 11.5937 25.6979 10.9481 26.5 10.9481V10.3481ZM31.45 16.3382C31.45 16.3172 31.4589 16.3043 31.4645 16.2986C31.4702 16.293 31.4818 16.2856 31.5 16.2856V16.8856C31.7975 16.8856 32.05 16.6402 32.05 16.3382H31.45ZM31.45 12.3798V16.3382H32.05V12.3798H31.45ZM31.5 12.4324C31.4818 12.4324 31.4702 12.425 31.4645 12.4194C31.4589 12.4138 31.45 12.4008 31.45 12.3798H32.05C32.05 12.0778 31.7975 11.8324 31.5 11.8324V12.4324ZM26.5 12.4324H31.5V11.8324H26.5V12.4324ZM26.55 12.3798C26.55 12.4008 26.5411 12.4138 26.5355 12.4194C26.5298 12.425 26.5182 12.4324 26.5 12.4324V11.8324C26.2025 11.8324 25.95 12.0778 25.95 12.3798H26.55ZM26.55 16.3382V12.3798H25.95V16.3382H26.55ZM26.5 16.2856C26.5182 16.2856 26.5298 16.293 26.5355 16.2986C26.5411 16.3043 26.55 16.3172 26.55 16.3382H25.95C25.95 16.6402 26.2025 16.8856 26.5 16.8856V16.2856ZM31.5 16.2856H26.5V16.8856H31.5V16.2856Z" fill="#222532"/>
<path fill-rule="evenodd" clip-rule="evenodd" d="M36.5 27.7184C36.5 26.6264 37.3965 25.7393 38.5 25.7393C39.6035 25.7393 40.5 26.6283 40.5 27.7184C40.5 28.8104 39.6035 29.6976 38.5 29.6976C37.3965 29.6976 36.5 28.8104 36.5 27.7184ZM38 27.7184C38 27.9909 38.2246 28.2132 38.5 28.2132C38.7754 28.2132 39 27.9909 39 27.7184C39 27.4459 38.7754 27.2236 38.5 27.2236C38.2246 27.2236 38 27.4459 38 27.7184Z" fill="white"/>
<path d="M38.5 25.4393C37.2338 25.4393 36.2 26.4578 36.2 27.7184H36.8C36.8 26.7951 37.5592 26.0393 38.5 26.0393V25.4393ZM40.8 27.7184C40.8 26.4599 39.7664 25.4393 38.5 25.4393V26.0393C39.4406 26.0393 40.2 26.7968 40.2 27.7184H40.8ZM38.5 29.9976C39.7662 29.9976 40.8 28.9791 40.8 27.7184H40.2C40.2 28.6418 39.4408 29.3976 38.5 29.3976V29.9976ZM36.2 27.7184C36.2 28.9791 37.2338 29.9976 38.5 29.9976V29.3976C37.5592 29.3976 36.8 28.6418 36.8 27.7184H36.2ZM38.5 27.9132C38.3873 27.9132 38.3 27.8223 38.3 27.7184H37.7C37.7 28.1596 38.0619 28.5132 38.5 28.5132V27.9132ZM38.7 27.7184C38.7 27.8223 38.6127 27.9132 38.5 27.9132V28.5132C38.9381 28.5132 39.3 28.1596 39.3 27.7184H38.7ZM38.5 27.5236C38.6127 27.5236 38.7 27.6145 38.7 27.7184H39.3C39.3 27.2773 38.9381 26.9236 38.5 26.9236V27.5236ZM38.3 27.7184C38.3 27.6145 38.3873 27.5236 38.5 27.5236V26.9236C38.0619 26.9236 37.7 27.2773 37.7 27.7184H38.3Z" fill="#222532"/>
<path fill-rule="evenodd" clip-rule="evenodd" d="M9.75003 27.7184C9.75003 26.6264 10.6465 25.7393 11.75 25.7393C12.8535 25.7393 13.75 26.6283 13.75 27.7184C13.75 28.8104 12.8535 29.6976 11.75 29.6976C10.6465 29.6976 9.75003 28.8085 9.75003 27.7184ZM11.25 27.7184C11.25 27.9909 11.4746 28.2132 11.75 28.2132C12.0254 28.2132 12.25 27.9909 12.25 27.7184C12.25 27.4459 12.0254 27.2236 11.75 27.2236C11.4746 27.2236 11.25 27.4459 11.25 27.7184Z" fill="white"/>
<path d="M11.75 25.4393C10.4838 25.4393 9.45003 26.4578 9.45003 27.7184H10.05C10.05 26.7951 10.8092 26.0393 11.75 26.0393V25.4393ZM14.05 27.7184C14.05 26.4599 13.0164 25.4393 11.75 25.4393V26.0393C12.6906 26.0393 13.45 26.7968 13.45 27.7184H14.05ZM11.75 29.9976C13.0162 29.9976 14.05 28.9791 14.05 27.7184H13.45C13.45 28.6418 12.6908 29.3976 11.75 29.3976V29.9976ZM9.45003 27.7184C9.45003 28.9769 10.4836 29.9976 11.75 29.9976V29.3976C10.8094 29.3976 10.05 28.64 10.05 27.7184H9.45003ZM11.75 27.9132C11.6374 27.9132 11.55 27.8223 11.55 27.7184H10.95C10.95 28.1596 11.3119 28.5132 11.75 28.5132V27.9132ZM11.95 27.7184C11.95 27.8223 11.8627 27.9132 11.75 27.9132V28.5132C12.1881 28.5132 12.55 28.1596 12.55 27.7184H11.95ZM11.75 27.5236C11.8627 27.5236 11.95 27.6145 11.95 27.7184H12.55C12.55 27.2773 12.1881 26.9236 11.75 26.9236V27.5236ZM11.55 27.7184C11.55 27.6145 11.6374 27.5236 11.75 27.5236V26.9236C11.3119 26.9236 10.95 27.2773 10.95 27.7184H11.55Z" fill="#222532"/>
<path d="M17.25 24.9971H32.75V26.4814H17.25V24.9971Z" fill="white" stroke="#222532" stroke-width="0.6"/>
</svg>
