<svg width="19" height="25" viewBox="0 0 19 25" fill="none" xmlns="http://www.w3.org/2000/svg">
<path d="M5.24803 15.7439C3.75973 15.7439 2.54883 14.5329 2.54883 13.0447C2.54883 12.7283 2.80664 12.4705 3.12303 12.4705C3.43943 12.4705 3.69723 12.7283 3.69723 13.0447C3.69723 13.9001 4.39448 14.5974 5.24998 14.5974C6.10548 14.5974 6.80273 13.9002 6.80273 13.0447C6.80273 12.7283 7.06054 12.4705 7.37693 12.4705C7.69333 12.4705 7.95113 12.7283 7.95113 13.0447C7.94722 14.533 6.73628 15.7439 5.24803 15.7439Z" fill="#4AF6CD" stroke="#4AF6CD" stroke-width="0.5"/>
<path d="M9.49998 15.7439C8.01168 15.7439 6.80078 14.5329 6.80078 13.0447C6.80078 12.7283 7.0586 12.4705 7.37498 12.4705C7.69137 12.4705 7.94918 12.7283 7.94918 13.0447C7.94918 13.9001 8.64643 14.5974 9.50193 14.5974C10.3574 14.5974 11.0547 13.9002 11.0547 13.0447C11.0547 12.7283 11.3125 12.4705 11.6289 12.4705C11.9453 12.4705 12.2031 12.7283 12.2031 13.0447C12.1992 14.533 10.9882 15.7439 9.49998 15.7439Z" fill="#4AF6CD" stroke="#4AF6CD" stroke-width="0.5"/>
<path d="M13.752 15.7439C12.2637 15.7439 11.0528 14.5329 11.0528 13.0447C11.0528 12.7283 11.3106 12.4705 11.627 12.4705C11.9434 12.4705 12.2012 12.7283 12.2012 13.0447C12.2012 13.9001 12.8984 14.5974 13.7539 14.5974C14.6094 14.5974 15.3067 13.9002 15.3067 13.0447C15.3067 12.7283 15.5645 12.4705 15.8809 12.4705C16.1973 12.4705 16.4551 12.7283 16.4551 13.0447C16.4512 14.533 15.2402 15.7439 13.752 15.7439Z" fill="#4AF6CD" stroke="#4AF6CD" stroke-width="0.5"/>
<path fill-rule="evenodd" clip-rule="evenodd" d="M0.421997 15.0682C0.421997 20.074 4.494 24.1462 9.5 24.1462L9.50025 24.1463C14.506 24.1463 18.5783 20.0743 18.5802 15.0683C18.5802 8.23634 10.2367 0.794798 9.88125 0.480343C9.67225 0.294798 9.35779 0.288938 9.141 0.464718C8.7835 0.751718 0.421997 7.59172 0.421997 15.0682ZM9.48412 1.67748C9.4842 1.6774 9.48429 1.67733 9.48438 1.67725H9.48388C9.48396 1.67733 9.48404 1.6774 9.48412 1.67748ZM9.48412 1.67748C7.86455 3.09778 1.56838 9.00158 1.56838 15.0678C1.56838 19.4408 5.12503 22.9973 9.49788 22.9973C13.8707 22.9973 17.4274 19.4406 17.4274 15.0678C17.4293 9.52503 11.09 3.19139 9.48412 1.67748Z" fill="#4AF6CD"/>
<path d="M9.5 24.1462L9.61248 23.923L9.55942 23.8962H9.5V24.1462ZM9.50025 24.1463L9.38776 24.3696L9.44083 24.3963H9.50025V24.1463ZM18.5802 15.0683L18.8302 15.0684V15.0683H18.5802ZM9.88125 0.480343L9.71527 0.667299L9.7156 0.667592L9.88125 0.480343ZM9.141 0.464718L9.2975 0.659671L9.29845 0.658907L9.141 0.464718ZM9.48438 1.67725L9.64871 1.86565L10.1513 1.42725H9.48438V1.67725ZM9.48388 1.67725V1.42725H8.85531L9.31217 1.85896L9.48388 1.67725ZM17.4274 15.0678L17.1774 15.0677V15.0678H17.4274ZM9.5 23.8962C4.63207 23.8962 0.671997 19.9359 0.671997 15.0682H0.171997C0.171997 20.212 4.35592 24.3962 9.5 24.3962V23.8962ZM9.61273 23.9231L9.61248 23.923L9.38751 24.3695L9.38776 24.3696L9.61273 23.9231ZM18.3302 15.0682C18.3283 19.9363 14.368 23.8963 9.50025 23.8963V24.3963C14.6441 24.3963 18.8282 20.2124 18.8302 15.0684L18.3302 15.0682ZM9.7156 0.667592C9.8881 0.820187 12.0498 2.74732 14.1663 5.48324C16.2911 8.22978 18.3302 11.7409 18.3302 15.0683H18.8302C18.8302 11.5638 16.6976 7.93813 14.5618 5.17729C12.4177 2.40582 10.2299 0.454955 10.0469 0.293094L9.7156 0.667592ZM9.29845 0.658907C9.42087 0.559645 9.59843 0.563571 9.71527 0.667299L10.0472 0.293388C9.74606 0.026025 9.29471 0.0182312 8.98355 0.270529L9.29845 0.658907ZM0.671997 15.0682C0.671997 11.4165 2.71832 7.89355 4.84298 5.22617C6.96208 2.56577 9.12629 0.797119 9.2975 0.659669L8.98449 0.269767C8.79821 0.419317 6.60291 2.21417 4.45189 4.91465C2.30642 7.60814 0.171997 11.2434 0.171997 15.0682H0.671997ZM9.32004 1.48885L9.31978 1.48908L9.64845 1.86588L9.64871 1.86565L9.32004 1.48885ZM9.48388 1.92725H9.48438V1.42725H9.48388V1.92725ZM9.65582 1.49577C9.65582 1.49577 9.65582 1.49577 9.65582 1.49577C9.65582 1.49577 9.65582 1.49577 9.65582 1.49577C9.65582 1.49577 9.65582 1.49577 9.65582 1.49577C9.65582 1.49577 9.65582 1.49577 9.65582 1.49577C9.65582 1.49577 9.65582 1.49577 9.65582 1.49577C9.65582 1.49577 9.65582 1.49577 9.65582 1.49577C9.65582 1.49577 9.65582 1.49577 9.65582 1.49577C9.65582 1.49577 9.65582 1.49577 9.65582 1.49577C9.65582 1.49577 9.65582 1.49577 9.65582 1.49577C9.65582 1.49577 9.65581 1.49577 9.65581 1.49577C9.65581 1.49577 9.65581 1.49577 9.65581 1.49577C9.65581 1.49577 9.65581 1.49577 9.65581 1.49577C9.65581 1.49577 9.65581 1.49577 9.65581 1.49577C9.65581 1.49577 9.65581 1.49577 9.65581 1.49577C9.65581 1.49577 9.65581 1.49577 9.65581 1.49577C9.65581 1.49577 9.65581 1.49577 9.65581 1.49576C9.65581 1.49576 9.65581 1.49576 9.65581 1.49576C9.65581 1.49576 9.65581 1.49576 9.65581 1.49576C9.65581 1.49576 9.65581 1.49576 9.65581 1.49576C9.65581 1.49576 9.65581 1.49576 9.65581 1.49576C9.65581 1.49576 9.65581 1.49576 9.65581 1.49576C9.65581 1.49576 9.65581 1.49576 9.65581 1.49576C9.65581 1.49576 9.65581 1.49576 9.65581 1.49576C9.65581 1.49576 9.65581 1.49576 9.65581 1.49576C9.65581 1.49576 9.65581 1.49576 9.65581 1.49576C9.65581 1.49576 9.65581 1.49576 9.65581 1.49576C9.65581 1.49576 9.65581 1.49576 9.65581 1.49576C9.65581 1.49576 9.65581 1.49576 9.65581 1.49576C9.65581 1.49576 9.65581 1.49576 9.65581 1.49576C9.65581 1.49576 9.65581 1.49576 9.6558 1.49576C9.6558 1.49576 9.6558 1.49576 9.6558 1.49576C9.6558 1.49576 9.6558 1.49576 9.6558 1.49576C9.6558 1.49576 9.6558 1.49576 9.6558 1.49576C9.6558 1.49576 9.6558 1.49576 9.6558 1.49576C9.6558 1.49576 9.6558 1.49576 9.6558 1.49576C9.6558 1.49576 9.6558 1.49576 9.6558 1.49576C9.6558 1.49576 9.6558 1.49576 9.6558 1.49576C9.6558 1.49576 9.6558 1.49576 9.6558 1.49576C9.6558 1.49576 9.6558 1.49575 9.6558 1.49575C9.6558 1.49575 9.6558 1.49575 9.6558 1.49575C9.6558 1.49575 9.6558 1.49575 9.6558 1.49575C9.6558 1.49575 9.6558 1.49575 9.6558 1.49575C9.6558 1.49575 9.6558 1.49575 9.6558 1.49575C9.6558 1.49575 9.6558 1.49575 9.6558 1.49575C9.6558 1.49575 9.6558 1.49575 9.6558 1.49575C9.6558 1.49575 9.6558 1.49575 9.6558 1.49575C9.6558 1.49575 9.6558 1.49575 9.6558 1.49575C9.6558 1.49575 9.6558 1.49575 9.6558 1.49575C9.6558 1.49575 9.6558 1.49575 9.6558 1.49575C9.6558 1.49575 9.6558 1.49575 9.6558 1.49575C9.6558 1.49575 9.6558 1.49575 9.6558 1.49575C9.6558 1.49575 9.6558 1.49575 9.6558 1.49575C9.65579 1.49575 9.65579 1.49575 9.65579 1.49575C9.65579 1.49575 9.65579 1.49575 9.65579 1.49575C9.65579 1.49575 9.65579 1.49575 9.65579 1.49575C9.65579 1.49575 9.65579 1.49575 9.65579 1.49575C9.65579 1.49575 9.65579 1.49575 9.65579 1.49575C9.65579 1.49575 9.65579 1.49575 9.65579 1.49575C9.65579 1.49575 9.65579 1.49575 9.65579 1.49575C9.65579 1.49575 9.65579 1.49575 9.65579 1.49575C9.65579 1.49575 9.65579 1.49575 9.65579 1.49574C9.65579 1.49574 9.65579 1.49574 9.65579 1.49574C9.65579 1.49574 9.65579 1.49574 9.65579 1.49574C9.65579 1.49574 9.65579 1.49574 9.65579 1.49574C9.65579 1.49574 9.65579 1.49574 9.65579 1.49574C9.65579 1.49574 9.65579 1.49574 9.65579 1.49574C9.65579 1.49574 9.65579 1.49574 9.65579 1.49574C9.65579 1.49574 9.65579 1.49574 9.65579 1.49574C9.65579 1.49574 9.65579 1.49574 9.65579 1.49574C9.65579 1.49574 9.65579 1.49574 9.65579 1.49574C9.65579 1.49574 9.65579 1.49574 9.65579 1.49574C9.65579 1.49574 9.65579 1.49574 9.65579 1.49574C9.65579 1.49574 9.65578 1.49574 9.65578 1.49574C9.65578 1.49574 9.65578 1.49574 9.65578 1.49574C9.65578 1.49574 9.65578 1.49574 9.65578 1.49574C9.65578 1.49574 9.65578 1.49574 9.65578 1.49574C9.65578 1.49574 9.65578 1.49574 9.65578 1.49574C9.65578 1.49574 9.65578 1.49574 9.65578 1.49574C9.65578 1.49574 9.65578 1.49574 9.65578 1.49574C9.65578 1.49574 9.65578 1.49574 9.65578 1.49574C9.65578 1.49574 9.65578 1.49574 9.65578 1.49574C9.65578 1.49574 9.65578 1.49574 9.65578 1.49574C9.65578 1.49574 9.65578 1.49574 9.65578 1.49574C9.65578 1.49574 9.65578 1.49573 9.65578 1.49573C9.65578 1.49573 9.65578 1.49573 9.65578 1.49573C9.65578 1.49573 9.65578 1.49573 9.65578 1.49573C9.65578 1.49573 9.65578 1.49573 9.65578 1.49573C9.65578 1.49573 9.65578 1.49573 9.65578 1.49573C9.65578 1.49573 9.65578 1.49573 9.65578 1.49573C9.65578 1.49573 9.65578 1.49573 9.65578 1.49573C9.65578 1.49573 9.65578 1.49573 9.65578 1.49573C9.65578 1.49573 9.65578 1.49573 9.65578 1.49573C9.65578 1.49573 9.65578 1.49573 9.65578 1.49573C9.65578 1.49573 9.65578 1.49573 9.65578 1.49573C9.65578 1.49573 9.65578 1.49573 9.65577 1.49573C9.65577 1.49573 9.65577 1.49573 9.65577 1.49573C9.65577 1.49573 9.65577 1.49573 9.65577 1.49573C9.65577 1.49573 9.65577 1.49573 9.65577 1.49573C9.65577 1.49573 9.65577 1.49573 9.65577 1.49573C9.65577 1.49573 9.65577 1.49573 9.65577 1.49573C9.65577 1.49573 9.65577 1.49573 9.65577 1.49573C9.65577 1.49573 9.65577 1.49573 9.65577 1.49573C9.65577 1.49573 9.65577 1.49573 9.65577 1.49573C9.65577 1.49573 9.65577 1.49573 9.65577 1.49573C9.65577 1.49573 9.65577 1.49573 9.65577 1.49573C9.65577 1.49573 9.65577 1.49573 9.65577 1.49573C9.65577 1.49572 9.65577 1.49572 9.65577 1.49572C9.65577 1.49572 9.65577 1.49572 9.65577 1.49572C9.65577 1.49572 9.65577 1.49572 9.65577 1.49572C9.65577 1.49572 9.65577 1.49572 9.65577 1.49572C9.65577 1.49572 9.65577 1.49572 9.65577 1.49572C9.65577 1.49572 9.65577 1.49572 9.65577 1.49572C9.65577 1.49572 9.65577 1.49572 9.65577 1.49572C9.65577 1.49572 9.65577 1.49572 9.65577 1.49572C9.65577 1.49572 9.65577 1.49572 9.65577 1.49572C9.65576 1.49572 9.65576 1.49572 9.65576 1.49572C9.65576 1.49572 9.65576 1.49572 9.65576 1.49572C9.65576 1.49572 9.65576 1.49572 9.65576 1.49572C9.65576 1.49572 9.65576 1.49572 9.65576 1.49572C9.65576 1.49572 9.65576 1.49572 9.65576 1.49572C9.65576 1.49572 9.65576 1.49572 9.65576 1.49572C9.65576 1.49572 9.65576 1.49572 9.65576 1.49572C9.65576 1.49572 9.65576 1.49572 9.65576 1.49572C9.65576 1.49572 9.65576 1.49572 9.65576 1.49572C9.65576 1.49572 9.65576 1.49572 9.65576 1.49572C9.65576 1.49572 9.65576 1.49572 9.65576 1.49572C9.65576 1.49572 9.65576 1.49572 9.65576 1.49572C9.65576 1.49572 9.65576 1.49572 9.65576 1.49572C9.65576 1.49572 9.65576 1.49572 9.65576 1.49571C9.65576 1.49571 9.65576 1.49571 9.65576 1.49571C9.65576 1.49571 9.65576 1.49571 9.65576 1.49571C9.65576 1.49571 9.65576 1.49571 9.65576 1.49571C9.65576 1.49571 9.65576 1.49571 9.65576 1.49571C9.65576 1.49571 9.65576 1.49571 9.65576 1.49571C9.65576 1.49571 9.65576 1.49571 9.65576 1.49571C9.65576 1.49571 9.65576 1.49571 9.65576 1.49571C9.65576 1.49571 9.65576 1.49571 9.65576 1.49571C9.65576 1.49571 9.65575 1.49571 9.65575 1.49571C9.65575 1.49571 9.65575 1.49571 9.65575 1.49571C9.65575 1.49571 9.65575 1.49571 9.65575 1.49571C9.65575 1.49571 9.65575 1.49571 9.65575 1.49571C9.65575 1.49571 9.65575 1.49571 9.65575 1.49571C9.65575 1.49571 9.65575 1.49571 9.65575 1.49571C9.65575 1.49571 9.65575 1.49571 9.65575 1.49571C9.65575 1.49571 9.65575 1.49571 9.65575 1.49571C9.65575 1.49571 9.65575 1.49571 9.65575 1.49571C9.65575 1.49571 9.65575 1.49571 9.65575 1.49571C9.65575 1.49571 9.65575 1.49571 9.65575 1.49571C9.65575 1.49571 9.65575 1.49571 9.65575 1.49571C9.65575 1.49571 9.65575 1.49571 9.65575 1.49571C9.65575 1.49571 9.65575 1.49571 9.65575 1.49571C9.65575 1.4957 9.65575 1.4957 9.65575 1.4957C9.65575 1.4957 9.65575 1.4957 9.65575 1.4957C9.65575 1.4957 9.65575 1.4957 9.65575 1.4957C9.65575 1.4957 9.65575 1.4957 9.65575 1.4957C9.65575 1.4957 9.65575 1.4957 9.65575 1.4957C9.65575 1.4957 9.65575 1.4957 9.65575 1.4957C9.65575 1.4957 9.65575 1.4957 9.65574 1.4957C9.65574 1.4957 9.65574 1.4957 9.65574 1.4957C9.65574 1.4957 9.65574 1.4957 9.65574 1.4957C9.65574 1.4957 9.65574 1.4957 9.65574 1.4957C9.65574 1.4957 9.65574 1.4957 9.65574 1.4957C9.65574 1.4957 9.65574 1.4957 9.65574 1.4957C9.65574 1.4957 9.65574 1.4957 9.65574 1.4957C9.65574 1.4957 9.65574 1.4957 9.65574 1.4957C9.65574 1.4957 9.65574 1.4957 9.65574 1.4957C9.65574 1.4957 9.65574 1.4957 9.65574 1.4957C9.65574 1.4957 9.65574 1.4957 9.65574 1.4957C9.65574 1.4957 9.65574 1.4957 9.65574 1.4957C9.65574 1.4957 9.65574 1.4957 9.65574 1.4957C9.65574 1.4957 9.65574 1.4957 9.65574 1.4957C9.65574 1.4957 9.65574 1.4957 9.65574 1.4957C9.65574 1.4957 9.65574 1.4957 9.65574 1.4957C9.65574 1.4957 9.65574 1.49569 9.65574 1.49569C9.65574 1.49569 9.65574 1.49569 9.65574 1.49569C9.65574 1.49569 9.65574 1.49569 9.65574 1.49569C9.65574 1.49569 9.65574 1.49569 9.65574 1.49569C9.65574 1.49569 9.65574 1.49569 9.65574 1.49569C9.65574 1.49569 9.65574 1.49569 9.65574 1.49569C9.65574 1.49569 9.65574 1.49569 9.65574 1.49569C9.65573 1.49569 9.65573 1.49569 9.65573 1.49569C9.65573 1.49569 9.65573 1.49569 9.65573 1.49569C9.65573 1.49569 9.65573 1.49569 9.65573 1.49569C9.65573 1.49569 9.65573 1.49569 9.65573 1.49569C9.65573 1.49569 9.65573 1.49569 9.65573 1.49569C9.65573 1.49569 9.65573 1.49569 9.65573 1.49569C9.65573 1.49569 9.65573 1.49569 9.65573 1.49569C9.65573 1.49569 9.65573 1.49569 9.65573 1.49569C9.65573 1.49569 9.65573 1.49569 9.65573 1.49569C9.65573 1.49569 9.65573 1.49569 9.65573 1.49569C9.65573 1.49569 9.65573 1.49569 9.65573 1.49569C9.65573 1.49569 9.65573 1.49569 9.65573 1.49569C9.65573 1.49569 9.65573 1.49569 9.65573 1.49569C9.65573 1.49569 9.65573 1.49569 9.65573 1.49569C9.65573 1.49569 9.65573 1.49569 9.65573 1.49569C9.65573 1.49569 9.65573 1.49569 9.65573 1.49569C9.65573 1.49568 9.65573 1.49568 9.65573 1.49568C9.65573 1.49568 9.65573 1.49568 9.65573 1.49568C9.65573 1.49568 9.65573 1.49568 9.65573 1.49568C9.65573 1.49568 9.65573 1.49568 9.65573 1.49568C9.65573 1.49568 9.65572 1.49568 9.65572 1.49568C9.65572 1.49568 9.65572 1.49568 9.65572 1.49568C9.65572 1.49568 9.65572 1.49568 9.65572 1.49568C9.65572 1.49568 9.65572 1.49568 9.65572 1.49568C9.65572 1.49568 9.65572 1.49568 9.65572 1.49568C9.65572 1.49568 9.65572 1.49568 9.65572 1.49568C9.65572 1.49568 9.65572 1.49568 9.65572 1.49568C9.65572 1.49568 9.65572 1.49568 9.65572 1.49568C9.65572 1.49568 9.65572 1.49568 9.65572 1.49568C9.65572 1.49568 9.65572 1.49568 9.65572 1.49568C9.65572 1.49568 9.65572 1.49568 9.65572 1.49568C9.65572 1.49568 9.65572 1.49568 9.65572 1.49568C9.65572 1.49568 9.65572 1.49568 9.65572 1.49568C9.65572 1.49568 9.65572 1.49568 9.65572 1.49568C9.65572 1.49568 9.65572 1.49568 9.65572 1.49568C9.65572 1.49568 9.65572 1.49568 9.65572 1.49568C9.65572 1.49568 9.65572 1.49568 9.65572 1.49568C9.65572 1.49568 9.65572 1.49568 9.65572 1.49568C9.65572 1.49568 9.65572 1.49568 9.65572 1.49567C9.65572 1.49567 9.65572 1.49567 9.65572 1.49567C9.65572 1.49567 9.65572 1.49567 9.65571 1.49567C9.65571 1.49567 9.65571 1.49567 9.65571 1.49567C9.65571 1.49567 9.65571 1.49567 9.65571 1.49567C9.65571 1.49567 9.65571 1.49567 9.65571 1.49567C9.65571 1.49567 9.65571 1.49567 9.65571 1.49567C9.65571 1.49567 9.65571 1.49567 9.65571 1.49567C9.65571 1.49567 9.65571 1.49567 9.65571 1.49567C9.65571 1.49567 9.65571 1.49567 9.65571 1.49567C9.65571 1.49567 9.65571 1.49567 9.65571 1.49567C9.65571 1.49567 9.65571 1.49567 9.65571 1.49567C9.65571 1.49567 9.65571 1.49567 9.65571 1.49567C9.65571 1.49567 9.65571 1.49567 9.65571 1.49567C9.65571 1.49567 9.65571 1.49567 9.65571 1.49567C9.65571 1.49567 9.65571 1.49567 9.65571 1.49567C9.65571 1.49567 9.65571 1.49567 9.65571 1.49567C9.65571 1.49567 9.65571 1.49567 9.65571 1.49567C9.65571 1.49567 9.65571 1.49567 9.65571 1.49567C9.65571 1.49567 9.65571 1.49567 9.65571 1.49567C9.65571 1.49567 9.65571 1.49567 9.65571 1.49567C9.65571 1.49567 9.65571 1.49567 9.65571 1.49567C9.65571 1.49567 9.65571 1.49567 9.65571 1.49567C9.65571 1.49567 9.65571 1.49566 9.65571 1.49566C9.65571 1.49566 9.65571 1.49566 9.65571 1.49566C9.6557 1.49566 9.6557 1.49566 9.6557 1.49566C9.6557 1.49566 9.6557 1.49566 9.6557 1.49566C9.6557 1.49566 9.6557 1.49566 9.6557 1.49566C9.6557 1.49566 9.6557 1.49566 9.6557 1.49566C9.6557 1.49566 9.6557 1.49566 9.6557 1.49566C9.6557 1.49566 9.6557 1.49566 9.6557 1.49566C9.6557 1.49566 9.6557 1.49566 9.6557 1.49566C9.6557 1.49566 9.6557 1.49566 9.6557 1.49566C9.6557 1.49566 9.6557 1.49566 9.6557 1.49566C9.6557 1.49566 9.6557 1.49566 9.6557 1.49566C9.6557 1.49566 9.6557 1.49566 9.6557 1.49566C9.6557 1.49566 9.6557 1.49566 9.6557 1.49566C9.6557 1.49566 9.6557 1.49566 9.6557 1.49566C9.6557 1.49566 9.6557 1.49566 9.6557 1.49566C9.6557 1.49566 9.6557 1.49566 9.6557 1.49566C9.6557 1.49566 9.6557 1.49566 9.6557 1.49566C9.6557 1.49566 9.6557 1.49566 9.6557 1.49566C9.6557 1.49566 9.6557 1.49566 9.6557 1.49566C9.6557 1.49566 9.6557 1.49566 9.6557 1.49566C9.6557 1.49566 9.6557 1.49566 9.6557 1.49566C9.6557 1.49566 9.65569 1.49566 9.65569 1.49565C9.65569 1.49565 9.65569 1.49565 9.65569 1.49565C9.65569 1.49565 9.65569 1.49565 9.65569 1.49565C9.65569 1.49565 9.65569 1.49565 9.65569 1.49565C9.65569 1.49565 9.65569 1.49565 9.65569 1.49565C9.65569 1.49565 9.65569 1.49565 9.65569 1.49565C9.65569 1.49565 9.65569 1.49565 9.65569 1.49565C9.65569 1.49565 9.65569 1.49565 9.65569 1.49565C9.65569 1.49565 9.65569 1.49565 9.65569 1.49565C9.65569 1.49565 9.65569 1.49565 9.65569 1.49565C9.65569 1.49565 9.65569 1.49565 9.65569 1.49565C9.65569 1.49565 9.65569 1.49565 9.65569 1.49565C9.65569 1.49565 9.65569 1.49565 9.65569 1.49565C9.65569 1.49565 9.65569 1.49565 9.65569 1.49565C9.65569 1.49565 9.65569 1.49565 9.65569 1.49565C9.65569 1.49565 9.65569 1.49565 9.65569 1.49565C9.65569 1.49565 9.65569 1.49565 9.65569 1.49565C9.65569 1.49565 9.65569 1.49565 9.65569 1.49565C9.65569 1.49565 9.65569 1.49565 9.65569 1.49565C9.65569 1.49565 9.65569 1.49565 9.65569 1.49565C9.65569 1.49565 9.65569 1.49565 9.65569 1.49565C9.65569 1.49565 9.65569 1.49565 9.65569 1.49565C9.65569 1.49565 9.65569 1.49565 9.65568 1.49565C9.65568 1.49565 9.65568 1.49564 9.65568 1.49564C9.65568 1.49564 9.65568 1.49564 9.65568 1.49564C9.65568 1.49564 9.65568 1.49564 9.65568 1.49564C9.65568 1.49564 9.65568 1.49564 9.65568 1.49564C9.65568 1.49564 9.65568 1.49564 9.65568 1.49564C9.65568 1.49564 9.65568 1.49564 9.65568 1.49564C9.65568 1.49564 9.65568 1.49564 9.65568 1.49564C9.65568 1.49564 9.65568 1.49564 9.65568 1.49564C9.65568 1.49564 9.65568 1.49564 9.65568 1.49564C9.65568 1.49564 9.65568 1.49564 9.65568 1.49564C9.65568 1.49564 9.65568 1.49564 9.65568 1.49564C9.65568 1.49564 9.65568 1.49564 9.65568 1.49564C9.65568 1.49564 9.65568 1.49564 9.65568 1.49564C9.65568 1.49564 9.65568 1.49564 9.65568 1.49564C9.65568 1.49564 9.65568 1.49564 9.65568 1.49564C9.65568 1.49564 9.65568 1.49564 9.65568 1.49564C9.65568 1.49564 9.65568 1.49564 9.65568 1.49564C9.65568 1.49564 9.65568 1.49564 9.65568 1.49564C9.65568 1.49564 9.65568 1.49564 9.65568 1.49564C9.65568 1.49564 9.65568 1.49564 9.65568 1.49564C9.65567 1.49564 9.65567 1.49564 9.65567 1.49564C9.65567 1.49564 9.65567 1.49564 9.65567 1.49564C9.65567 1.49564 9.65567 1.49564 9.65567 1.49564C9.65567 1.49563 9.65567 1.49563 9.65567 1.49563C9.65567 1.49563 9.65567 1.49563 9.65567 1.49563C9.65567 1.49563 9.65567 1.49563 9.65567 1.49563C9.65567 1.49563 9.65567 1.49563 9.65567 1.49563C9.65567 1.49563 9.65567 1.49563 9.65567 1.49563C9.65567 1.49563 9.65567 1.49563 9.65567 1.49563C9.65567 1.49563 9.65567 1.49563 9.65567 1.49563C9.65567 1.49563 9.65567 1.49563 9.65567 1.49563C9.65567 1.49563 9.65567 1.49563 9.65567 1.49563C9.65567 1.49563 9.65567 1.49563 9.65567 1.49563C9.65567 1.49563 9.65567 1.49563 9.65567 1.49563C9.65567 1.49563 9.65567 1.49563 9.65567 1.49563C9.65567 1.49563 9.65567 1.49563 9.65567 1.49563C9.65567 1.49563 9.65567 1.49563 9.65567 1.49563C9.65567 1.49563 9.65567 1.49563 9.65567 1.49563C9.65567 1.49563 9.65567 1.49563 9.65567 1.49563C9.65567 1.49563 9.65567 1.49563 9.65567 1.49563C9.65567 1.49563 9.65567 1.49563 9.65567 1.49563C9.65567 1.49563 9.65567 1.49563 9.65567 1.49563C9.65567 1.49563 9.65566 1.49563 9.65566 1.49563C9.65566 1.49563 9.65566 1.49563 9.65566 1.49563C9.65566 1.49563 9.65566 1.49563 9.65566 1.49563C9.65566 1.49563 9.65566 1.49562 9.65566 1.49562C9.65566 1.49562 9.65566 1.49562 9.65566 1.49562C9.65566 1.49562 9.65566 1.49562 9.65566 1.49562C9.65566 1.49562 9.65566 1.49562 9.65566 1.49562C9.65566 1.49562 9.65566 1.49562 9.65566 1.49562C9.65566 1.49562 9.65566 1.49562 9.65566 1.49562C9.65566 1.49562 9.65566 1.49562 9.65566 1.49562C9.65566 1.49562 9.65566 1.49562 9.65566 1.49562C9.65566 1.49562 9.65566 1.49562 9.65566 1.49562C9.65566 1.49562 9.65566 1.49562 9.65566 1.49562C9.65566 1.49562 9.65566 1.49562 9.65566 1.49562C9.65566 1.49562 9.65566 1.49562 9.65566 1.49562C9.65566 1.49562 9.65566 1.49562 9.65566 1.49562C9.65566 1.49562 9.65566 1.49562 9.65566 1.49562C9.65566 1.49562 9.65566 1.49562 9.65566 1.49562C9.65566 1.49562 9.65566 1.49562 9.65566 1.49562C9.65566 1.49562 9.65566 1.49562 9.65566 1.49562C9.65566 1.49562 9.65566 1.49562 9.65565 1.49562C9.65565 1.49562 9.65565 1.49562 9.65565 1.49562C9.65565 1.49562 9.65565 1.49562 9.65565 1.49562C9.65565 1.49562 9.65565 1.49562 9.65565 1.49562C9.65565 1.49562 9.65565 1.49562 9.65565 1.49562C9.65565 1.49562 9.65565 1.49562 9.65565 1.49562C9.65565 1.49561 9.65565 1.49561 9.65565 1.49561C9.65565 1.49561 9.65565 1.49561 9.65565 1.49561C9.65565 1.49561 9.65565 1.49561 9.65565 1.49561C9.65565 1.49561 9.65565 1.49561 9.65565 1.49561C9.65565 1.49561 9.65565 1.49561 9.65565 1.49561C9.65565 1.49561 9.65565 1.49561 9.65565 1.49561C9.65565 1.49561 9.65565 1.49561 9.65565 1.49561C9.65565 1.49561 9.65565 1.49561 9.65565 1.49561C9.65565 1.49561 9.65565 1.49561 9.65565 1.49561C9.65565 1.49561 9.65565 1.49561 9.65565 1.49561C9.65565 1.49561 9.65565 1.49561 9.65565 1.49561C9.65565 1.49561 9.65565 1.49561 9.65565 1.49561C9.65565 1.49561 9.65565 1.49561 9.65565 1.49561C9.65565 1.49561 9.65565 1.49561 9.65565 1.49561C9.65565 1.49561 9.65565 1.49561 9.65565 1.49561C9.65565 1.49561 9.65565 1.49561 9.65565 1.49561C9.65565 1.49561 9.65565 1.49561 9.65565 1.49561C9.65564 1.49561 9.65564 1.49561 9.65564 1.49561C9.65564 1.49561 9.65564 1.49561 9.65564 1.49561C9.65564 1.49561 9.65564 1.49561 9.65564 1.49561C9.65564 1.49561 9.65564 1.49561 9.65564 1.49561C9.65564 1.49561 9.65564 1.49561 9.65564 1.49561C9.65564 1.49561 9.65564 1.4956 9.65564 1.4956C9.65564 1.4956 9.65564 1.4956 9.65564 1.4956C9.65564 1.4956 9.65564 1.4956 9.65564 1.4956C9.65564 1.4956 9.65564 1.4956 9.65564 1.4956C9.65564 1.4956 9.65564 1.4956 9.65564 1.4956C9.65564 1.4956 9.65564 1.4956 9.65564 1.4956C9.65564 1.4956 9.65564 1.4956 9.65564 1.4956C9.65564 1.4956 9.65564 1.4956 9.65564 1.4956C9.65564 1.4956 9.65564 1.4956 9.65564 1.4956C9.65564 1.4956 9.65564 1.4956 9.65564 1.4956C9.65564 1.4956 9.65564 1.4956 9.65564 1.4956C9.65564 1.4956 9.65564 1.4956 9.65564 1.4956C9.65564 1.4956 9.65564 1.4956 9.65564 1.4956C9.65564 1.4956 9.65564 1.4956 9.65564 1.4956C9.65564 1.4956 9.65564 1.4956 9.65564 1.4956C9.65564 1.4956 9.65563 1.4956 9.65563 1.4956C9.65563 1.4956 9.65563 1.4956 9.65563 1.4956C9.65563 1.4956 9.65563 1.4956 9.65563 1.4956C9.65563 1.4956 9.65563 1.4956 9.65563 1.4956C9.65563 1.4956 9.65563 1.4956 9.65563 1.4956C9.65563 1.4956 9.65563 1.4956 9.65563 1.4956C9.65563 1.4956 9.65563 1.4956 9.65563 1.4956C9.65563 1.4956 9.65563 1.4956 9.65563 1.4956C9.65563 1.49559 9.65563 1.49559 9.65563 1.49559C9.65563 1.49559 9.65563 1.49559 9.65563 1.49559C9.65563 1.49559 9.65563 1.49559 9.65563 1.49559C9.65563 1.49559 9.65563 1.49559 9.65563 1.49559C9.65563 1.49559 9.65563 1.49559 9.65563 1.49559C9.65563 1.49559 9.65563 1.49559 9.65563 1.49559C9.65563 1.49559 9.65563 1.49559 9.65563 1.49559C9.65563 1.49559 9.65563 1.49559 9.65563 1.49559C9.65563 1.49559 9.65563 1.49559 9.65563 1.49559C9.65563 1.49559 9.65563 1.49559 9.65563 1.49559C9.65563 1.49559 9.65563 1.49559 9.65563 1.49559C9.65563 1.49559 9.65563 1.49559 9.65563 1.49559C9.65563 1.49559 9.65563 1.49559 9.65563 1.49559C9.65563 1.49559 9.65563 1.49559 9.65563 1.49559C9.65563 1.49559 9.65563 1.49559 9.65562 1.49559C9.65562 1.49559 9.65562 1.49559 9.65562 1.49559C9.65562 1.49559 9.65562 1.49559 9.65562 1.49559C9.65562 1.49559 9.65562 1.49559 9.65562 1.49559C9.65562 1.49559 9.65562 1.49559 9.65562 1.49559C9.65562 1.49559 9.65562 1.49559 9.65562 1.49559C9.65562 1.49559 9.65562 1.49559 9.65562 1.49559C9.65562 1.49559 9.65562 1.49559 9.65562 1.49559C9.65562 1.49559 9.65562 1.49559 9.65562 1.49558C9.65562 1.49558 9.65562 1.49558 9.65562 1.49558C9.65562 1.49558 9.65562 1.49558 9.65562 1.49558C9.65562 1.49558 9.65562 1.49558 9.65562 1.49558C9.65562 1.49558 9.65562 1.49558 9.65562 1.49558C9.65562 1.49558 9.65562 1.49558 9.65562 1.49558C9.65562 1.49558 9.65562 1.49558 9.65562 1.49558C9.65562 1.49558 9.65562 1.49558 9.65562 1.49558C9.65562 1.49558 9.65562 1.49558 9.65562 1.49558C9.65562 1.49558 9.65562 1.49558 9.65562 1.49558C9.65562 1.49558 9.65562 1.49558 9.65562 1.49558C9.65562 1.49558 9.65562 1.49558 9.65562 1.49558C9.65562 1.49558 9.65562 1.49558 9.65562 1.49558C9.65561 1.49558 9.65561 1.49558 9.65561 1.49558C9.65561 1.49558 9.65561 1.49558 9.65561 1.49558C9.65561 1.49558 9.65561 1.49558 9.65561 1.49558C9.65561 1.49558 9.65561 1.49558 9.65561 1.49558C9.65561 1.49558 9.65561 1.49558 9.65561 1.49558C9.65561 1.49558 9.65561 1.49558 9.65561 1.49558C9.65561 1.49558 9.65561 1.49558 9.65561 1.49558C9.65561 1.49558 9.65561 1.49558 9.65561 1.49558C9.65561 1.49558 9.65561 1.49558 9.65561 1.49558C9.65561 1.49558 9.65561 1.49558 9.65561 1.49558C9.65561 1.49557 9.65561 1.49557 9.65561 1.49557C9.65561 1.49557 9.65561 1.49557 9.65561 1.49557C9.65561 1.49557 9.65561 1.49557 9.65561 1.49557C9.65561 1.49557 9.65561 1.49557 9.65561 1.49557C9.65561 1.49557 9.65561 1.49557 9.65561 1.49557C9.65561 1.49557 9.65561 1.49557 9.65561 1.49557C9.65561 1.49557 9.65561 1.49557 9.65561 1.49557C9.65561 1.49557 9.65561 1.49557 9.65561 1.49557C9.65561 1.49557 9.65561 1.49557 9.65561 1.49557C9.65561 1.49557 9.65561 1.49557 9.65561 1.49557C9.65561 1.49557 9.65561 1.49557 9.65561 1.49557C9.65561 1.49557 9.65561 1.49557 9.65561 1.49557C9.65561 1.49557 9.6556 1.49557 9.6556 1.49557C9.6556 1.49557 9.6556 1.49557 9.6556 1.49557C9.6556 1.49557 9.6556 1.49557 9.6556 1.49557C9.6556 1.49557 9.6556 1.49557 9.6556 1.49557C9.6556 1.49557 9.6556 1.49557 9.6556 1.49557C9.6556 1.49557 9.6556 1.49557 9.6556 1.49557C9.6556 1.49557 9.6556 1.49557 9.6556 1.49557C9.6556 1.49557 9.6556 1.49557 9.6556 1.49557C9.6556 1.49557 9.6556 1.49557 9.6556 1.49557C9.6556 1.49557 9.6556 1.49557 9.6556 1.49557C9.6556 1.49557 9.6556 1.49557 9.6556 1.49556C9.6556 1.49556 9.6556 1.49556 9.6556 1.49556C9.6556 1.49556 9.6556 1.49556 9.6556 1.49556C9.6556 1.49556 9.6556 1.49556 9.6556 1.49556C9.6556 1.49556 9.6556 1.49556 9.6556 1.49556C9.6556 1.49556 9.6556 1.49556 9.6556 1.49556C9.6556 1.49556 9.6556 1.49556 9.6556 1.49556C9.6556 1.49556 9.6556 1.49556 9.6556 1.49556C9.6556 1.49556 9.6556 1.49556 9.6556 1.49556C9.6556 1.49556 9.6556 1.49556 9.6556 1.49556C9.6556 1.49556 9.6556 1.49556 9.65559 1.49556C9.65559 1.49556 9.65559 1.49556 9.65559 1.49556C9.65559 1.49556 9.65559 1.49556 9.65559 1.49556C9.65559 1.49556 9.65559 1.49556 9.65559 1.49556C9.65559 1.49556 9.65559 1.49556 9.65559 1.49556C9.65559 1.49556 9.65559 1.49556 9.65559 1.49556C9.65559 1.49556 9.65559 1.49556 9.65559 1.49556C9.65559 1.49556 9.65559 1.49556 9.65559 1.49556C9.65559 1.49556 9.65559 1.49556 9.65559 1.49556C9.65559 1.49556 9.65559 1.49556 9.65559 1.49556C9.65559 1.49556 9.65559 1.49556 9.65559 1.49556C9.65559 1.49556 9.65559 1.49556 9.65559 1.49556C9.65559 1.49556 9.65559 1.49556 9.65559 1.49556C9.65559 1.49556 9.65559 1.49555 9.65559 1.49555C9.65559 1.49555 9.65559 1.49555 9.65559 1.49555C9.65559 1.49555 9.65559 1.49555 9.65559 1.49555C9.65559 1.49555 9.65559 1.49555 9.65559 1.49555C9.65559 1.49555 9.65559 1.49555 9.65559 1.49555C9.65559 1.49555 9.65559 1.49555 9.65559 1.49555C9.65559 1.49555 9.65559 1.49555 9.65559 1.49555C9.65559 1.49555 9.65559 1.49555 9.65559 1.49555C9.65559 1.49555 9.65559 1.49555 9.65559 1.49555C9.65559 1.49555 9.65559 1.49555 9.65559 1.49555C9.65558 1.49555 9.65558 1.49555 9.65558 1.49555C9.65558 1.49555 9.65558 1.49555 9.65558 1.49555C9.65558 1.49555 9.65558 1.49555 9.65558 1.49555C9.65558 1.49555 9.65558 1.49555 9.65558 1.49555C9.65558 1.49555 9.65558 1.49555 9.65558 1.49555C9.65558 1.49555 9.65558 1.49555 9.65558 1.49555C9.65558 1.49555 9.65558 1.49555 9.65558 1.49555C9.65558 1.49555 9.65558 1.49555 9.65558 1.49555C9.65558 1.49555 9.65558 1.49555 9.65558 1.49555C9.65558 1.49555 9.65558 1.49555 9.65558 1.49555C9.65558 1.49555 9.65558 1.49555 9.65558 1.49555C9.65558 1.49555 9.65558 1.49555 9.65558 1.49555C9.65558 1.49555 9.65558 1.49555 9.65558 1.49554L9.31217 1.85896C9.31217 1.85896 9.31217 1.85896 9.31217 1.85896C9.31217 1.85896 9.31217 1.85896 9.31217 1.85896C9.31217 1.85896 9.31217 1.85896 9.31217 1.85896C9.31217 1.85896 9.31217 1.85896 9.31217 1.85896C9.31217 1.85896 9.31217 1.85896 9.31217 1.85896C9.31217 1.85896 9.31217 1.85896 9.31217 1.85896C9.31217 1.85896 9.31217 1.85896 9.31217 1.85896C9.31217 1.85896 9.31218 1.85896 9.31218 1.85897C9.31218 1.85897 9.31218 1.85897 9.31218 1.85897C9.31218 1.85897 9.31218 1.85897 9.31218 1.85897C9.31218 1.85897 9.31218 1.85897 9.31218 1.85897C9.31218 1.85897 9.31218 1.85897 9.31218 1.85897C9.31218 1.85897 9.31218 1.85897 9.31218 1.85897C9.31218 1.85897 9.31218 1.85897 9.31218 1.85897C9.31218 1.85897 9.31218 1.85897 9.31218 1.85897C9.31218 1.85897 9.31218 1.85897 9.31218 1.85897C9.31218 1.85897 9.31218 1.85897 9.31218 1.85897C9.31218 1.85897 9.31218 1.85897 9.31218 1.85897C9.31218 1.85897 9.31218 1.85897 9.31218 1.85897C9.31218 1.85897 9.31218 1.85897 9.31218 1.85897C9.31218 1.85897 9.31218 1.85897 9.31218 1.85897C9.31218 1.85897 9.31218 1.85897 9.31218 1.85897C9.31218 1.85897 9.31218 1.85897 9.31218 1.85897C9.31218 1.85897 9.31218 1.85897 9.31218 1.85897C9.31218 1.85897 9.31218 1.85897 9.31218 1.85897C9.31218 1.85897 9.31218 1.85897 9.31218 1.85897C9.31218 1.85897 9.31218 1.85897 9.31218 1.85897C9.31218 1.85897 9.31218 1.85897 9.31219 1.85897C9.31219 1.85897 9.31219 1.85897 9.31219 1.85897C9.31219 1.85897 9.31219 1.85897 9.31219 1.85897C9.31219 1.85898 9.31219 1.85898 9.31219 1.85898C9.31219 1.85898 9.31219 1.85898 9.31219 1.85898C9.31219 1.85898 9.31219 1.85898 9.31219 1.85898C9.31219 1.85898 9.31219 1.85898 9.31219 1.85898C9.31219 1.85898 9.31219 1.85898 9.31219 1.85898C9.31219 1.85898 9.31219 1.85898 9.31219 1.85898C9.31219 1.85898 9.31219 1.85898 9.31219 1.85898C9.31219 1.85898 9.31219 1.85898 9.31219 1.85898C9.31219 1.85898 9.31219 1.85898 9.31219 1.85898C9.31219 1.85898 9.31219 1.85898 9.31219 1.85898C9.31219 1.85898 9.31219 1.85898 9.31219 1.85898C9.31219 1.85898 9.31219 1.85898 9.31219 1.85898C9.31219 1.85898 9.31219 1.85898 9.31219 1.85898C9.31219 1.85898 9.31219 1.85898 9.31219 1.85898C9.31219 1.85898 9.31219 1.85898 9.31219 1.85898C9.31219 1.85898 9.31219 1.85898 9.31219 1.85898C9.31219 1.85898 9.31219 1.85898 9.31219 1.85898C9.31219 1.85898 9.31219 1.85898 9.31219 1.85898C9.31219 1.85898 9.31219 1.85898 9.31219 1.85898C9.31219 1.85898 9.31219 1.85898 9.31219 1.85898C9.3122 1.85898 9.3122 1.85898 9.3122 1.85898C9.3122 1.85898 9.3122 1.85898 9.3122 1.85898C9.3122 1.85898 9.3122 1.85898 9.3122 1.85899C9.3122 1.85899 9.3122 1.85899 9.3122 1.85899C9.3122 1.85899 9.3122 1.85899 9.3122 1.85899C9.3122 1.85899 9.3122 1.85899 9.3122 1.85899C9.3122 1.85899 9.3122 1.85899 9.3122 1.85899C9.3122 1.85899 9.3122 1.85899 9.3122 1.85899C9.3122 1.85899 9.3122 1.85899 9.3122 1.85899C9.3122 1.85899 9.3122 1.85899 9.3122 1.85899C9.3122 1.85899 9.3122 1.85899 9.3122 1.85899C9.3122 1.85899 9.3122 1.85899 9.3122 1.85899C9.3122 1.85899 9.3122 1.85899 9.3122 1.85899C9.3122 1.85899 9.3122 1.85899 9.3122 1.85899C9.3122 1.85899 9.3122 1.85899 9.3122 1.85899C9.3122 1.85899 9.3122 1.85899 9.3122 1.85899C9.3122 1.85899 9.3122 1.85899 9.3122 1.85899C9.3122 1.85899 9.3122 1.85899 9.3122 1.85899C9.3122 1.85899 9.3122 1.85899 9.3122 1.85899C9.3122 1.85899 9.3122 1.85899 9.3122 1.85899C9.3122 1.85899 9.31221 1.85899 9.31221 1.85899C9.31221 1.85899 9.31221 1.85899 9.31221 1.85899C9.31221 1.85899 9.31221 1.85899 9.31221 1.85899C9.31221 1.85899 9.31221 1.85899 9.31221 1.85899C9.31221 1.85899 9.31221 1.85899 9.31221 1.85899C9.31221 1.85899 9.31221 1.859 9.31221 1.859C9.31221 1.859 9.31221 1.859 9.31221 1.859C9.31221 1.859 9.31221 1.859 9.31221 1.859C9.31221 1.859 9.31221 1.859 9.31221 1.859C9.31221 1.859 9.31221 1.859 9.31221 1.859C9.31221 1.859 9.31221 1.859 9.31221 1.859C9.31221 1.859 9.31221 1.859 9.31221 1.859C9.31221 1.859 9.31221 1.859 9.31221 1.859C9.31221 1.859 9.31221 1.859 9.31221 1.859C9.31221 1.859 9.31221 1.859 9.31221 1.859C9.31221 1.859 9.31221 1.859 9.31221 1.859C9.31221 1.859 9.31221 1.859 9.31221 1.859C9.31221 1.859 9.31221 1.859 9.31221 1.859C9.31221 1.859 9.31221 1.859 9.31221 1.859C9.31221 1.859 9.31221 1.859 9.31221 1.859C9.31221 1.859 9.31221 1.859 9.31221 1.859C9.31221 1.859 9.31221 1.859 9.31221 1.859C9.31221 1.859 9.31221 1.859 9.31222 1.859C9.31222 1.859 9.31222 1.859 9.31222 1.859C9.31222 1.859 9.31222 1.859 9.31222 1.859C9.31222 1.859 9.31222 1.859 9.31222 1.859C9.31222 1.859 9.31222 1.859 9.31222 1.859C9.31222 1.859 9.31222 1.859 9.31222 1.859C9.31222 1.85901 9.31222 1.85901 9.31222 1.85901C9.31222 1.85901 9.31222 1.85901 9.31222 1.85901C9.31222 1.85901 9.31222 1.85901 9.31222 1.85901C9.31222 1.85901 9.31222 1.85901 9.31222 1.85901C9.31222 1.85901 9.31222 1.85901 9.31222 1.85901C9.31222 1.85901 9.31222 1.85901 9.31222 1.85901C9.31222 1.85901 9.31222 1.85901 9.31222 1.85901C9.31222 1.85901 9.31222 1.85901 9.31222 1.85901C9.31222 1.85901 9.31222 1.85901 9.31222 1.85901C9.31222 1.85901 9.31222 1.85901 9.31222 1.85901C9.31222 1.85901 9.31222 1.85901 9.31222 1.85901C9.31222 1.85901 9.31222 1.85901 9.31222 1.85901C9.31222 1.85901 9.31222 1.85901 9.31222 1.85901C9.31222 1.85901 9.31222 1.85901 9.31222 1.85901C9.31222 1.85901 9.31222 1.85901 9.31222 1.85901C9.31223 1.85901 9.31223 1.85901 9.31223 1.85901C9.31223 1.85901 9.31223 1.85901 9.31223 1.85901C9.31223 1.85901 9.31223 1.85901 9.31223 1.85901C9.31223 1.85901 9.31223 1.85901 9.31223 1.85901C9.31223 1.85901 9.31223 1.85901 9.31223 1.85901C9.31223 1.85901 9.31223 1.85901 9.31223 1.85901C9.31223 1.85901 9.31223 1.85901 9.31223 1.85901C9.31223 1.85901 9.31223 1.85902 9.31223 1.85902C9.31223 1.85902 9.31223 1.85902 9.31223 1.85902C9.31223 1.85902 9.31223 1.85902 9.31223 1.85902C9.31223 1.85902 9.31223 1.85902 9.31223 1.85902C9.31223 1.85902 9.31223 1.85902 9.31223 1.85902C9.31223 1.85902 9.31223 1.85902 9.31223 1.85902C9.31223 1.85902 9.31223 1.85902 9.31223 1.85902C9.31223 1.85902 9.31223 1.85902 9.31223 1.85902C9.31223 1.85902 9.31223 1.85902 9.31223 1.85902C9.31223 1.85902 9.31223 1.85902 9.31223 1.85902C9.31223 1.85902 9.31223 1.85902 9.31223 1.85902C9.31223 1.85902 9.31223 1.85902 9.31223 1.85902C9.31223 1.85902 9.31223 1.85902 9.31223 1.85902C9.31223 1.85902 9.31223 1.85902 9.31223 1.85902C9.31223 1.85902 9.31223 1.85902 9.31223 1.85902C9.31223 1.85902 9.31224 1.85902 9.31224 1.85902C9.31224 1.85902 9.31224 1.85902 9.31224 1.85902C9.31224 1.85902 9.31224 1.85902 9.31224 1.85902C9.31224 1.85902 9.31224 1.85902 9.31224 1.85902C9.31224 1.85902 9.31224 1.85902 9.31224 1.85902C9.31224 1.85902 9.31224 1.85902 9.31224 1.85902C9.31224 1.85902 9.31224 1.85902 9.31224 1.85902C9.31224 1.85902 9.31224 1.85902 9.31224 1.85903C9.31224 1.85903 9.31224 1.85903 9.31224 1.85903C9.31224 1.85903 9.31224 1.85903 9.31224 1.85903C9.31224 1.85903 9.31224 1.85903 9.31224 1.85903C9.31224 1.85903 9.31224 1.85903 9.31224 1.85903C9.31224 1.85903 9.31224 1.85903 9.31224 1.85903C9.31224 1.85903 9.31224 1.85903 9.31224 1.85903C9.31224 1.85903 9.31224 1.85903 9.31224 1.85903C9.31224 1.85903 9.31224 1.85903 9.31224 1.85903C9.31224 1.85903 9.31224 1.85903 9.31224 1.85903C9.31224 1.85903 9.31224 1.85903 9.31224 1.85903C9.31224 1.85903 9.31224 1.85903 9.31224 1.85903C9.31224 1.85903 9.31224 1.85903 9.31224 1.85903C9.31224 1.85903 9.31224 1.85903 9.31225 1.85903C9.31225 1.85903 9.31225 1.85903 9.31225 1.85903C9.31225 1.85903 9.31225 1.85903 9.31225 1.85903C9.31225 1.85903 9.31225 1.85903 9.31225 1.85903C9.31225 1.85903 9.31225 1.85903 9.31225 1.85903C9.31225 1.85903 9.31225 1.85903 9.31225 1.85903C9.31225 1.85903 9.31225 1.85903 9.31225 1.85903C9.31225 1.85903 9.31225 1.85903 9.31225 1.85903C9.31225 1.85903 9.31225 1.85903 9.31225 1.85903C9.31225 1.85903 9.31225 1.85903 9.31225 1.85903C9.31225 1.85903 9.31225 1.85904 9.31225 1.85904C9.31225 1.85904 9.31225 1.85904 9.31225 1.85904C9.31225 1.85904 9.31225 1.85904 9.31225 1.85904C9.31225 1.85904 9.31225 1.85904 9.31225 1.85904C9.31225 1.85904 9.31225 1.85904 9.31225 1.85904C9.31225 1.85904 9.31225 1.85904 9.31225 1.85904C9.31225 1.85904 9.31225 1.85904 9.31225 1.85904C9.31225 1.85904 9.31225 1.85904 9.31225 1.85904C9.31225 1.85904 9.31225 1.85904 9.31225 1.85904C9.31225 1.85904 9.31225 1.85904 9.31225 1.85904C9.31225 1.85904 9.31225 1.85904 9.31225 1.85904C9.31225 1.85904 9.31225 1.85904 9.31225 1.85904C9.31225 1.85904 9.31225 1.85904 9.31225 1.85904C9.31226 1.85904 9.31226 1.85904 9.31226 1.85904C9.31226 1.85904 9.31226 1.85904 9.31226 1.85904C9.31226 1.85904 9.31226 1.85904 9.31226 1.85904C9.31226 1.85904 9.31226 1.85904 9.31226 1.85904C9.31226 1.85904 9.31226 1.85904 9.31226 1.85904C9.31226 1.85904 9.31226 1.85904 9.31226 1.85904C9.31226 1.85904 9.31226 1.85904 9.31226 1.85904C9.31226 1.85904 9.31226 1.85904 9.31226 1.85904C9.31226 1.85904 9.31226 1.85904 9.31226 1.85904C9.31226 1.85904 9.31226 1.85904 9.31226 1.85904C9.31226 1.85905 9.31226 1.85905 9.31226 1.85905C9.31226 1.85905 9.31226 1.85905 9.31226 1.85905C9.31226 1.85905 9.31226 1.85905 9.31226 1.85905C9.31226 1.85905 9.31226 1.85905 9.31226 1.85905C9.31226 1.85905 9.31226 1.85905 9.31226 1.85905C9.31226 1.85905 9.31226 1.85905 9.31226 1.85905C9.31226 1.85905 9.31226 1.85905 9.31226 1.85905C9.31226 1.85905 9.31226 1.85905 9.31226 1.85905C9.31226 1.85905 9.31226 1.85905 9.31226 1.85905C9.31226 1.85905 9.31226 1.85905 9.31226 1.85905C9.31226 1.85905 9.31227 1.85905 9.31227 1.85905C9.31227 1.85905 9.31227 1.85905 9.31227 1.85905C9.31227 1.85905 9.31227 1.85905 9.31227 1.85905C9.31227 1.85905 9.31227 1.85905 9.31227 1.85905C9.31227 1.85905 9.31227 1.85905 9.31227 1.85905C9.31227 1.85905 9.31227 1.85905 9.31227 1.85905C9.31227 1.85905 9.31227 1.85905 9.31227 1.85905C9.31227 1.85905 9.31227 1.85905 9.31227 1.85905C9.31227 1.85905 9.31227 1.85905 9.31227 1.85905C9.31227 1.85905 9.31227 1.85905 9.31227 1.85905C9.31227 1.85905 9.31227 1.85905 9.31227 1.85905C9.31227 1.85905 9.31227 1.85905 9.31227 1.85905C9.31227 1.85905 9.31227 1.85905 9.31227 1.85906C9.31227 1.85906 9.31227 1.85906 9.31227 1.85906C9.31227 1.85906 9.31227 1.85906 9.31227 1.85906C9.31227 1.85906 9.31227 1.85906 9.31227 1.85906C9.31227 1.85906 9.31227 1.85906 9.31227 1.85906C9.31227 1.85906 9.31227 1.85906 9.31227 1.85906C9.31227 1.85906 9.31227 1.85906 9.31227 1.85906C9.31227 1.85906 9.31227 1.85906 9.31227 1.85906C9.31227 1.85906 9.31227 1.85906 9.31227 1.85906C9.31227 1.85906 9.31227 1.85906 9.31227 1.85906C9.31227 1.85906 9.31227 1.85906 9.31228 1.85906C9.31228 1.85906 9.31228 1.85906 9.31228 1.85906C9.31228 1.85906 9.31228 1.85906 9.31228 1.85906C9.31228 1.85906 9.31228 1.85906 9.31228 1.85906C9.31228 1.85906 9.31228 1.85906 9.31228 1.85906C9.31228 1.85906 9.31228 1.85906 9.31228 1.85906C9.31228 1.85906 9.31228 1.85906 9.31228 1.85906C9.31228 1.85906 9.31228 1.85906 9.31228 1.85906C9.31228 1.85906 9.31228 1.85906 9.31228 1.85906C9.31228 1.85906 9.31228 1.85906 9.31228 1.85906C9.31228 1.85906 9.31228 1.85906 9.31228 1.85906C9.31228 1.85906 9.31228 1.85906 9.31228 1.85906C9.31228 1.85906 9.31228 1.85906 9.31228 1.85906C9.31228 1.85907 9.31228 1.85907 9.31228 1.85907C9.31228 1.85907 9.31228 1.85907 9.31228 1.85907C9.31228 1.85907 9.31228 1.85907 9.31228 1.85907C9.31228 1.85907 9.31228 1.85907 9.31228 1.85907C9.31228 1.85907 9.31228 1.85907 9.31228 1.85907C9.31228 1.85907 9.31228 1.85907 9.31228 1.85907C9.31228 1.85907 9.31228 1.85907 9.31228 1.85907C9.31228 1.85907 9.31228 1.85907 9.31228 1.85907C9.31229 1.85907 9.31229 1.85907 9.31229 1.85907C9.31229 1.85907 9.31229 1.85907 9.31229 1.85907C9.31229 1.85907 9.31229 1.85907 9.31229 1.85907C9.31229 1.85907 9.31229 1.85907 9.31229 1.85907C9.31229 1.85907 9.31229 1.85907 9.31229 1.85907C9.31229 1.85907 9.31229 1.85907 9.31229 1.85907C9.31229 1.85907 9.31229 1.85907 9.31229 1.85907C9.31229 1.85907 9.31229 1.85907 9.31229 1.85907C9.31229 1.85907 9.31229 1.85907 9.31229 1.85907C9.31229 1.85907 9.31229 1.85907 9.31229 1.85907C9.31229 1.85907 9.31229 1.85907 9.31229 1.85907C9.31229 1.85907 9.31229 1.85907 9.31229 1.85907C9.31229 1.85907 9.31229 1.85907 9.31229 1.85907C9.31229 1.85907 9.31229 1.85907 9.31229 1.85907C9.31229 1.85907 9.31229 1.85907 9.31229 1.85908C9.31229 1.85908 9.31229 1.85908 9.31229 1.85908C9.31229 1.85908 9.31229 1.85908 9.31229 1.85908C9.31229 1.85908 9.31229 1.85908 9.31229 1.85908C9.31229 1.85908 9.31229 1.85908 9.31229 1.85908C9.31229 1.85908 9.31229 1.85908 9.31229 1.85908C9.31229 1.85908 9.31229 1.85908 9.31229 1.85908C9.31229 1.85908 9.31229 1.85908 9.31229 1.85908C9.31229 1.85908 9.3123 1.85908 9.3123 1.85908C9.3123 1.85908 9.3123 1.85908 9.3123 1.85908C9.3123 1.85908 9.3123 1.85908 9.3123 1.85908C9.3123 1.85908 9.3123 1.85908 9.3123 1.85908C9.3123 1.85908 9.3123 1.85908 9.3123 1.85908C9.3123 1.85908 9.3123 1.85908 9.3123 1.85908C9.3123 1.85908 9.3123 1.85908 9.3123 1.85908C9.3123 1.85908 9.3123 1.85908 9.3123 1.85908C9.3123 1.85908 9.3123 1.85908 9.3123 1.85908C9.3123 1.85908 9.3123 1.85908 9.3123 1.85908C9.3123 1.85908 9.3123 1.85908 9.3123 1.85908C9.3123 1.85908 9.3123 1.85908 9.3123 1.85908C9.3123 1.85908 9.3123 1.85908 9.3123 1.85908C9.3123 1.85908 9.3123 1.85908 9.3123 1.85908C9.3123 1.85908 9.3123 1.85908 9.3123 1.85908C9.3123 1.85908 9.3123 1.85909 9.3123 1.85909C9.3123 1.85909 9.3123 1.85909 9.3123 1.85909C9.3123 1.85909 9.3123 1.85909 9.3123 1.85909C9.3123 1.85909 9.3123 1.85909 9.3123 1.85909C9.3123 1.85909 9.3123 1.85909 9.3123 1.85909C9.3123 1.85909 9.3123 1.85909 9.31231 1.85909C9.31231 1.85909 9.31231 1.85909 9.31231 1.85909C9.31231 1.85909 9.31231 1.85909 9.31231 1.85909C9.31231 1.85909 9.31231 1.85909 9.31231 1.85909C9.31231 1.85909 9.31231 1.85909 9.31231 1.85909C9.31231 1.85909 9.31231 1.85909 9.31231 1.85909C9.31231 1.85909 9.31231 1.85909 9.31231 1.85909C9.31231 1.85909 9.31231 1.85909 9.31231 1.85909C9.31231 1.85909 9.31231 1.85909 9.31231 1.85909C9.31231 1.85909 9.31231 1.85909 9.31231 1.85909C9.31231 1.85909 9.31231 1.85909 9.31231 1.85909C9.31231 1.85909 9.31231 1.85909 9.31231 1.85909C9.31231 1.85909 9.31231 1.85909 9.31231 1.85909C9.31231 1.85909 9.31231 1.85909 9.31231 1.85909C9.31231 1.85909 9.31231 1.85909 9.31231 1.85909C9.31231 1.85909 9.31231 1.85909 9.31231 1.85909C9.31231 1.85909 9.31231 1.85909 9.31231 1.85909C9.31231 1.85909 9.31231 1.85909 9.31231 1.8591C9.31231 1.8591 9.31231 1.8591 9.31231 1.8591C9.31231 1.8591 9.31231 1.8591 9.31231 1.8591C9.31231 1.8591 9.31231 1.8591 9.31231 1.8591C9.31231 1.8591 9.31231 1.8591 9.31231 1.8591C9.31231 1.8591 9.31231 1.8591 9.31231 1.8591C9.31232 1.8591 9.31232 1.8591 9.31232 1.8591C9.31232 1.8591 9.31232 1.8591 9.31232 1.8591C9.31232 1.8591 9.31232 1.8591 9.31232 1.8591C9.31232 1.8591 9.31232 1.8591 9.31232 1.8591C9.31232 1.8591 9.31232 1.8591 9.31232 1.8591C9.31232 1.8591 9.31232 1.8591 9.31232 1.8591C9.31232 1.8591 9.31232 1.8591 9.31232 1.8591C9.31232 1.8591 9.31232 1.8591 9.31232 1.8591C9.31232 1.8591 9.31232 1.8591 9.31232 1.8591C9.31232 1.8591 9.31232 1.8591 9.31232 1.8591C9.31232 1.8591 9.31232 1.8591 9.31232 1.8591C9.31232 1.8591 9.31232 1.8591 9.31232 1.8591C9.31232 1.8591 9.31232 1.8591 9.31232 1.8591C9.31232 1.8591 9.31232 1.8591 9.31232 1.8591C9.31232 1.8591 9.31232 1.8591 9.31232 1.8591C9.31232 1.8591 9.31232 1.8591 9.31232 1.8591C9.31232 1.8591 9.31232 1.8591 9.31232 1.8591C9.31232 1.8591 9.31232 1.85911 9.31232 1.85911C9.31232 1.85911 9.31232 1.85911 9.31232 1.85911C9.31232 1.85911 9.31232 1.85911 9.31232 1.85911C9.31232 1.85911 9.31233 1.85911 9.31233 1.85911C9.31233 1.85911 9.31233 1.85911 9.31233 1.85911C9.31233 1.85911 9.31233 1.85911 9.31233 1.85911C9.31233 1.85911 9.31233 1.85911 9.31233 1.85911C9.31233 1.85911 9.31233 1.85911 9.31233 1.85911C9.31233 1.85911 9.31233 1.85911 9.31233 1.85911C9.31233 1.85911 9.31233 1.85911 9.31233 1.85911C9.31233 1.85911 9.31233 1.85911 9.31233 1.85911C9.31233 1.85911 9.31233 1.85911 9.31233 1.85911C9.31233 1.85911 9.31233 1.85911 9.31233 1.85911C9.31233 1.85911 9.31233 1.85911 9.31233 1.85911C9.31233 1.85911 9.31233 1.85911 9.31233 1.85911C9.31233 1.85911 9.31233 1.85911 9.31233 1.85911C9.31233 1.85911 9.31233 1.85911 9.31233 1.85911C9.31233 1.85911 9.31233 1.85911 9.31233 1.85911C9.31233 1.85911 9.31233 1.85911 9.31233 1.85911C9.31233 1.85911 9.31233 1.85911 9.31233 1.85911C9.31233 1.85911 9.31233 1.85911 9.31233 1.85911C9.31233 1.85911 9.31233 1.85911 9.31233 1.85911C9.31233 1.85911 9.31233 1.85911 9.31233 1.85912C9.31233 1.85912 9.31233 1.85912 9.31234 1.85912C9.31234 1.85912 9.31234 1.85912 9.31234 1.85912C9.31234 1.85912 9.31234 1.85912 9.31234 1.85912C9.31234 1.85912 9.31234 1.85912 9.31234 1.85912C9.31234 1.85912 9.31234 1.85912 9.31234 1.85912C9.31234 1.85912 9.31234 1.85912 9.31234 1.85912C9.31234 1.85912 9.31234 1.85912 9.31234 1.85912C9.31234 1.85912 9.31234 1.85912 9.31234 1.85912C9.31234 1.85912 9.31234 1.85912 9.31234 1.85912C9.31234 1.85912 9.31234 1.85912 9.31234 1.85912C9.31234 1.85912 9.31234 1.85912 9.31234 1.85912C9.31234 1.85912 9.31234 1.85912 9.31234 1.85912C9.31234 1.85912 9.31234 1.85912 9.31234 1.85912C9.31234 1.85912 9.31234 1.85912 9.31234 1.85912C9.31234 1.85912 9.31234 1.85912 9.31234 1.85912C9.31234 1.85912 9.31234 1.85912 9.31234 1.85912C9.31234 1.85912 9.31234 1.85912 9.31234 1.85912C9.31234 1.85912 9.31234 1.85912 9.31234 1.85912C9.31234 1.85912 9.31234 1.85912 9.31234 1.85912C9.31234 1.85912 9.31234 1.85912 9.31234 1.85912C9.31234 1.85912 9.31234 1.85912 9.31234 1.85912C9.31234 1.85912 9.31234 1.85912 9.31234 1.85912C9.31234 1.85912 9.31234 1.85913 9.31234 1.85913C9.31235 1.85913 9.31235 1.85913 9.31235 1.85913C9.31235 1.85913 9.31235 1.85913 9.31235 1.85913C9.31235 1.85913 9.31235 1.85913 9.31235 1.85913C9.31235 1.85913 9.31235 1.85913 9.31235 1.85913C9.31235 1.85913 9.31235 1.85913 9.31235 1.85913C9.31235 1.85913 9.31235 1.85913 9.31235 1.85913C9.31235 1.85913 9.31235 1.85913 9.31235 1.85913C9.31235 1.85913 9.31235 1.85913 9.31235 1.85913C9.31235 1.85913 9.31235 1.85913 9.31235 1.85913C9.31235 1.85913 9.31235 1.85913 9.31235 1.85913C9.31235 1.85913 9.31235 1.85913 9.31235 1.85913C9.31235 1.85913 9.31235 1.85913 9.31235 1.85913C9.31235 1.85913 9.31235 1.85913 9.31235 1.85913C9.31235 1.85913 9.31235 1.85913 9.31235 1.85913C9.31235 1.85913 9.31235 1.85913 9.31235 1.85913C9.31235 1.85913 9.31235 1.85913 9.31235 1.85913C9.31235 1.85913 9.31235 1.85913 9.31235 1.85913C9.31235 1.85913 9.31235 1.85913 9.31235 1.85913C9.31235 1.85913 9.31235 1.85913 9.31235 1.85913C9.31235 1.85913 9.31235 1.85913 9.31235 1.85913C9.31235 1.85913 9.31236 1.85913 9.31236 1.85913C9.31236 1.85913 9.31236 1.85913 9.31236 1.85913C9.31236 1.85914 9.31236 1.85914 9.31236 1.85914C9.31236 1.85914 9.31236 1.85914 9.31236 1.85914C9.31236 1.85914 9.31236 1.85914 9.31236 1.85914C9.31236 1.85914 9.31236 1.85914 9.31236 1.85914C9.31236 1.85914 9.31236 1.85914 9.31236 1.85914C9.31236 1.85914 9.31236 1.85914 9.31236 1.85914C9.31236 1.85914 9.31236 1.85914 9.31236 1.85914C9.31236 1.85914 9.31236 1.85914 9.31236 1.85914C9.31236 1.85914 9.31236 1.85914 9.31236 1.85914C9.31236 1.85914 9.31236 1.85914 9.31236 1.85914C9.31236 1.85914 9.31236 1.85914 9.31236 1.85914C9.31236 1.85914 9.31236 1.85914 9.31236 1.85914C9.31236 1.85914 9.31236 1.85914 9.31236 1.85914C9.31236 1.85914 9.31236 1.85914 9.31236 1.85914C9.31236 1.85914 9.31236 1.85914 9.31236 1.85914C9.31236 1.85914 9.31236 1.85914 9.31236 1.85914C9.31236 1.85914 9.31236 1.85914 9.31236 1.85914C9.31236 1.85914 9.31236 1.85914 9.31236 1.85914C9.31236 1.85914 9.31236 1.85914 9.31236 1.85914C9.31236 1.85914 9.31236 1.85914 9.31236 1.85914C9.31236 1.85914 9.31236 1.85914 9.31237 1.85914C9.31237 1.85914 9.31237 1.85914 9.31237 1.85914C9.31237 1.85914 9.31237 1.85915 9.31237 1.85915C9.31237 1.85915 9.31237 1.85915 9.31237 1.85915C9.31237 1.85915 9.31237 1.85915 9.31237 1.85915C9.31237 1.85915 9.31237 1.85915 9.31237 1.85915C9.31237 1.85915 9.31237 1.85915 9.31237 1.85915C9.31237 1.85915 9.31237 1.85915 9.31237 1.85915C9.31237 1.85915 9.31237 1.85915 9.31237 1.85915C9.31237 1.85915 9.31237 1.85915 9.31237 1.85915C9.31237 1.85915 9.31237 1.85915 9.31237 1.85915C9.31237 1.85915 9.31237 1.85915 9.31237 1.85915C9.31237 1.85915 9.31237 1.85915 9.31237 1.85915C9.31237 1.85915 9.31237 1.85915 9.31237 1.85915C9.31237 1.85915 9.31237 1.85915 9.31237 1.85915C9.31237 1.85915 9.31237 1.85915 9.31237 1.85915C9.31237 1.85915 9.31237 1.85915 9.31237 1.85915C9.31237 1.85915 9.31237 1.85915 9.31237 1.85915C9.31237 1.85915 9.31237 1.85915 9.31237 1.85915C9.31237 1.85915 9.31237 1.85915 9.31237 1.85915C9.31237 1.85915 9.31237 1.85915 9.31237 1.85915C9.31238 1.85915 9.31238 1.85915 9.31238 1.85915C9.31238 1.85915 9.31238 1.85915 9.31238 1.85915C9.31238 1.85915 9.31238 1.85915 9.31238 1.85915C9.31238 1.85915 9.31238 1.85915 9.31238 1.85915C9.31238 1.85916 9.31238 1.85916 9.31238 1.85916C9.31238 1.85916 9.31238 1.85916 9.31238 1.85916C9.31238 1.85916 9.31238 1.85916 9.31238 1.85916C9.31238 1.85916 9.31238 1.85916 9.31238 1.85916C9.31238 1.85916 9.31238 1.85916 9.31238 1.85916C9.31238 1.85916 9.31238 1.85916 9.31238 1.85916C9.31238 1.85916 9.31238 1.85916 9.31238 1.85916C9.31238 1.85916 9.31238 1.85916 9.31238 1.85916C9.31238 1.85916 9.31238 1.85916 9.31238 1.85916C9.31238 1.85916 9.31238 1.85916 9.31238 1.85916C9.31238 1.85916 9.31238 1.85916 9.31238 1.85916C9.31238 1.85916 9.31238 1.85916 9.31238 1.85916C9.31238 1.85916 9.31238 1.85916 9.31238 1.85916C9.31238 1.85916 9.31238 1.85916 9.31238 1.85916C9.31238 1.85916 9.31238 1.85916 9.31238 1.85916C9.31238 1.85916 9.31238 1.85916 9.31238 1.85916C9.31238 1.85916 9.31238 1.85916 9.31238 1.85916C9.31238 1.85916 9.31238 1.85916 9.31238 1.85916C9.31238 1.85916 9.31239 1.85916 9.31239 1.85916C9.31239 1.85916 9.31239 1.85916 9.31239 1.85916C9.31239 1.85916 9.31239 1.85916 9.31239 1.85916C9.31239 1.85916 9.31239 1.85916 9.31239 1.85916C9.31239 1.85916 9.31239 1.85916 9.31239 1.85917C9.31239 1.85917 9.31239 1.85917 9.31239 1.85917C9.31239 1.85917 9.31239 1.85917 9.31239 1.85917C9.31239 1.85917 9.31239 1.85917 9.31239 1.85917C9.31239 1.85917 9.31239 1.85917 9.31239 1.85917C9.31239 1.85917 9.31239 1.85917 9.31239 1.85917C9.31239 1.85917 9.31239 1.85917 9.31239 1.85917C9.31239 1.85917 9.31239 1.85917 9.31239 1.85917C9.31239 1.85917 9.31239 1.85917 9.31239 1.85917C9.31239 1.85917 9.31239 1.85917 9.31239 1.85917C9.31239 1.85917 9.31239 1.85917 9.31239 1.85917C9.31239 1.85917 9.31239 1.85917 9.31239 1.85917C9.31239 1.85917 9.31239 1.85917 9.31239 1.85917C9.31239 1.85917 9.31239 1.85917 9.31239 1.85917C9.31239 1.85917 9.31239 1.85917 9.31239 1.85917C9.31239 1.85917 9.31239 1.85917 9.31239 1.85917C9.31239 1.85917 9.31239 1.85917 9.3124 1.85917C9.3124 1.85917 9.3124 1.85917 9.3124 1.85917C9.3124 1.85917 9.3124 1.85917 9.3124 1.85917C9.3124 1.85917 9.3124 1.85917 9.3124 1.85917C9.3124 1.85917 9.3124 1.85917 9.3124 1.85917C9.3124 1.85917 9.3124 1.85917 9.3124 1.85917C9.3124 1.85917 9.3124 1.85917 9.3124 1.85917C9.3124 1.85918 9.3124 1.85918 9.3124 1.85918C9.3124 1.85918 9.3124 1.85918 9.3124 1.85918C9.3124 1.85918 9.3124 1.85918 9.3124 1.85918C9.3124 1.85918 9.3124 1.85918 9.3124 1.85918C9.3124 1.85918 9.3124 1.85918 9.3124 1.85918C9.3124 1.85918 9.3124 1.85918 9.3124 1.85918C9.3124 1.85918 9.3124 1.85918 9.3124 1.85918C9.3124 1.85918 9.3124 1.85918 9.3124 1.85918C9.3124 1.85918 9.3124 1.85918 9.3124 1.85918C9.3124 1.85918 9.3124 1.85918 9.3124 1.85918C9.3124 1.85918 9.3124 1.85918 9.3124 1.85918C9.3124 1.85918 9.3124 1.85918 9.3124 1.85918C9.3124 1.85918 9.3124 1.85918 9.3124 1.85918C9.3124 1.85918 9.3124 1.85918 9.3124 1.85918C9.3124 1.85918 9.3124 1.85918 9.3124 1.85918C9.3124 1.85918 9.3124 1.85918 9.3124 1.85918C9.31241 1.85918 9.31241 1.85918 9.31241 1.85918C9.31241 1.85918 9.31241 1.85918 9.31241 1.85918C9.31241 1.85918 9.31241 1.85918 9.31241 1.85918C9.31241 1.85918 9.31241 1.85918 9.31241 1.85918C9.31241 1.85918 9.31241 1.85918 9.31241 1.85918C9.31241 1.85918 9.31241 1.85918 9.31241 1.85918C9.31241 1.85918 9.31241 1.85918 9.31241 1.85919C9.31241 1.85919 9.31241 1.85919 9.31241 1.85919C9.31241 1.85919 9.31241 1.85919 9.31241 1.85919C9.31241 1.85919 9.31241 1.85919 9.31241 1.85919C9.31241 1.85919 9.31241 1.85919 9.31241 1.85919C9.31241 1.85919 9.31241 1.85919 9.31241 1.85919C9.31241 1.85919 9.31241 1.85919 9.31241 1.85919C9.31241 1.85919 9.31241 1.85919 9.31241 1.85919C9.31241 1.85919 9.31241 1.85919 9.31241 1.85919L9.65582 1.49577ZM9.31928 1.48952C8.50284 2.20551 6.50912 4.05001 4.71762 6.48215C2.93059 8.90821 1.31838 11.9543 1.31838 15.0678H1.81838C1.81838 12.1151 3.35425 9.17613 5.1202 6.77868C6.88167 4.3873 8.84583 2.56975 9.64895 1.86544L9.31928 1.48952ZM1.31838 15.0678C1.31838 19.5789 4.98696 23.2473 9.49788 23.2473V22.7473C5.26309 22.7473 1.81838 19.3027 1.81838 15.0678H1.31838ZM9.49788 23.2473C14.0088 23.2473 17.6774 19.5787 17.6774 15.0678H17.1774C17.1774 19.3025 13.7327 22.7473 9.49788 22.7473V23.2473ZM17.6774 15.0678C17.6784 12.2132 16.0526 9.18915 14.2612 6.71519C12.4628 4.23173 10.464 2.25767 9.65561 1.49557L9.31263 1.85939C10.1101 2.6112 12.0839 4.56091 13.8562 7.00844C15.6354 9.46545 17.1783 12.3795 17.1774 15.0677L17.6774 15.0678Z" fill="#4AF6CD"/>
</svg>
