<svg width="26" height="24" viewBox="0 0 26 24" fill="none" xmlns="http://www.w3.org/2000/svg">
<path d="M17.3337 8.70929H0V10.8756H17.3337C20.3206 10.8756 22.75 8.44521 22.75 5.45929C22.75 2.47241 20.3196 0.0429688 17.3337 0.0429688C14.3468 0.0429688 11.9174 2.47337 11.9174 5.45929H14.0837C14.0837 3.66773 15.5421 2.20929 17.3337 2.20929C19.1252 2.20929 20.5837 3.66773 20.5837 5.45929C20.5837 7.25085 19.1252 8.70929 17.3337 8.70929Z" fill="#4AF6CD"/>
<path d="M20.5837 13.043H0V15.2093H20.5837C22.3752 15.2093 23.8337 16.6677 23.8337 18.4593C23.8337 20.2508 22.3752 21.7093 20.5837 21.7093C18.7921 21.7093 17.3337 20.2508 17.3337 18.4593H15.1674C15.1674 21.4462 17.5978 23.8756 20.5837 23.8756C23.5706 23.8756 26 21.4452 26 18.4593C26 15.4724 23.5696 13.043 20.5837 13.043Z" fill="#4AF6CD"/>
</svg>
